<?xml version="1.0" encoding="UTF-8" standalone="no"?>
<!DOCTYPE svg PUBLIC "-//W3C//DTD SVG 1.1//EN" "http://www.w3.org/Graphics/SVG/1.1/DTD/svg11.dtd">
<svg width="100%" height="100%" viewBox="0 0 128 128" version="1.1" xmlns="http://www.w3.org/2000/svg" xmlns:xlink="http://www.w3.org/1999/xlink" xml:space="preserve" style="fill-rule:evenodd;clip-rule:evenodd;stroke-linejoin:round;stroke-miterlimit:1.41421;">
    <g transform="matrix(0.973001,-0.59409,0.913116,1.4955,-20.0628,45.1689)">
        <circle cx="57.5" cy="57.5" r="44.5" style="fill-opacity:0.356863;"/>
    </g>
    <path d="M64,19.5C88.56,19.5 108.5,39.44 108.5,64C108.5,88.56 88.56,108.5 64,108.5C39.44,108.5 19.5,88.56 19.5,64C19.5,39.44 39.44,19.5 64,19.5ZM69.188,90.497L69.188,80.442L59.134,80.442L59.134,90.497L69.188,90.497ZM68.258,76.971C68.21,74.204 68.443,72.284 68.956,71.21C69.469,70.137 70.787,68.717 72.91,66.952C77.013,63.541 79.691,60.845 80.943,58.865C82.195,56.885 82.822,54.786 82.822,52.567C82.822,48.56 81.116,45.047 77.705,42.03C74.293,39.012 69.701,37.503 63.928,37.503C58.442,37.503 54.011,38.994 50.635,41.976C47.26,44.958 45.441,48.584 45.178,52.854L54.41,53.999C55.054,51.017 56.235,48.798 57.953,47.343C59.67,45.888 61.805,45.161 64.358,45.161C67.006,45.161 69.111,45.858 70.673,47.254C72.236,48.649 73.017,50.325 73.017,52.281C73.017,53.689 72.576,54.977 71.693,56.146C71.121,56.885 69.367,58.448 66.433,60.833C63.499,63.219 61.543,65.366 60.565,67.274C59.587,69.182 59.098,71.616 59.098,74.574C59.098,74.86 59.11,75.659 59.134,76.971L68.258,76.971Z" style="fill:white;"/>
</svg>
