<?xml version="1.0" encoding="UTF-8" standalone="no"?>
<!DOCTYPE svg PUBLIC "-//W3C//DTD SVG 1.1//EN" "http://www.w3.org/Graphics/SVG/1.1/DTD/svg11.dtd">
<svg width="100%" height="100%" viewBox="0 0 128 128" version="1.1" xmlns="http://www.w3.org/2000/svg" xmlns:xlink="http://www.w3.org/1999/xlink" xml:space="preserve" style="fill-rule:evenodd;clip-rule:evenodd;stroke-linejoin:round;stroke-miterlimit:1.41421;">
    <g transform="matrix(0.973001,-0.59409,0.913116,1.4955,-20.0628,45.1689)">
        <circle cx="57.5" cy="57.5" r="44.5" style="fill-opacity:0.359706;"/>
    </g>
    <path d="M64,19.5C88.56,19.5 108.5,39.44 108.5,64C108.5,88.56 88.56,108.5 64,108.5C39.44,108.5 19.5,88.56 19.5,64C19.5,39.44 39.44,19.5 64,19.5ZM32.5,68L95.5,68C95.5,68 89.33,92.209 64,92.5C38.67,92.791 32.5,68 32.5,68ZM71.949,45.425C71.725,44.714 71.605,45.959 71.605,45.175C71.605,41.035 74.965,37.675 79.105,37.675C83.244,37.675 86.605,41.035 86.605,45.175C86.605,45.959 86.484,44.714 86.261,45.425C85.304,42.383 82.46,40.175 79.105,40.175C75.749,40.175 72.905,42.383 71.949,45.425ZM41.292,45.175C41.069,44.464 40.605,45.959 40.605,45.175C40.605,41.035 43.965,37.675 48.105,37.675C52.244,37.675 55.605,41.035 55.605,45.175C55.605,45.959 55.828,44.464 55.605,45.175C54.648,42.133 51.46,40.175 48.105,40.175C44.749,40.175 42.249,42.133 41.292,45.175Z" style="fill:white;"/>
</svg>
