<?xml version="1.0" encoding="UTF-8" standalone="no"?>
<!DOCTYPE svg PUBLIC "-//W3C//DTD SVG 1.1//EN" "http://www.w3.org/Graphics/SVG/1.1/DTD/svg11.dtd">
<svg width="100%" height="100%" viewBox="0 0 128 128" version="1.1" xmlns="http://www.w3.org/2000/svg" xmlns:xlink="http://www.w3.org/1999/xlink" xml:space="preserve" style="fill-rule:evenodd;clip-rule:evenodd;stroke-linejoin:round;stroke-miterlimit:1.41421;">
    <g transform="matrix(0.973001,-0.59409,0.913116,1.4955,-20.0628,45.1689)">
        <circle cx="57.5" cy="57.5" r="44.5" style="fill-opacity:0.359706;"/>
    </g>
    <path d="M64,19.5C88.56,19.5 108.5,39.44 108.5,64C108.5,88.56 88.56,108.5 64,108.5C39.44,108.5 19.5,88.56 19.5,64C19.5,39.44 39.44,19.5 64,19.5ZM32.213,86.5C32.086,85.914 32.021,85.319 32.021,84.717C32.021,75.491 44.256,68 63.021,68C81.787,68 94.021,75.491 94.021,84.717C94.021,85.319 93.957,85.914 93.83,86.5C92.017,78.111 80.562,75.566 63.021,75.566C51.699,75.566 44.662,76.627 38.481,79.635C35.087,81.287 32.856,83.526 32.213,86.5ZM50.852,47.205L57.763,54.183L54.651,57.264L47.74,50.286L40.763,57.197L37.681,54.086L44.659,47.175L37.748,40.197L40.859,37.115L47.77,44.093L54.748,37.182L57.83,40.294L50.852,47.205ZM81.411,47.205L88.322,54.183L85.21,57.264L78.299,50.286L71.322,57.197L68.24,54.086L75.218,47.175L68.307,40.197L71.418,37.115L78.329,44.093L85.307,37.182L88.389,40.294L81.411,47.205Z" style="fill:white;"/>
</svg>
