<?xml version="1.0" encoding="UTF-8" standalone="no"?>
<!DOCTYPE svg PUBLIC "-//W3C//DTD SVG 1.1//EN" "http://www.w3.org/Graphics/SVG/1.1/DTD/svg11.dtd">
<svg width="100%" height="100%" viewBox="0 0 128 128" version="1.1" xmlns="http://www.w3.org/2000/svg" xmlns:xlink="http://www.w3.org/1999/xlink" xml:space="preserve" style="fill-rule:evenodd;clip-rule:evenodd;stroke-linejoin:round;stroke-miterlimit:1.41421;">
    <g transform="matrix(0.795181,0,0,0.694444,13.1084,22.6806)">
        <g transform="matrix(0.846939,0,0,0.571429,12.3367,43.2143)">
            <path d="M110,23.25C110,20.352 108.614,18 106.907,18L15.093,18C13.386,18 12,20.352 12,23.25L12,33.75C12,36.648 13.386,39 15.093,39L106.907,39C108.614,39 110,36.648 110,33.75L110,23.25Z"/>
        </g>
        <g transform="matrix(0.846939,0,0,0.571429,12.3367,73.2143)">
            <path d="M110,23.25C110,20.352 108.614,18 106.907,18L15.093,18C13.386,18 12,20.352 12,23.25L12,33.75C12,36.648 13.386,39 15.093,39L106.907,39C108.614,39 110,36.648 110,33.75L110,23.25Z"/>
        </g>
        <g transform="matrix(0.846939,0,0,0.571429,12.3367,13.2143)">
            <path d="M110,23.25C110,20.352 108.614,18 106.907,18L15.093,18C13.386,18 12,20.352 12,23.25L12,33.75C12,36.648 13.386,39 15.093,39L106.907,39C108.614,39 110,36.648 110,33.75L110,23.25Z"/>
        </g>
    </g>
</svg>
