<?xml version="1.0" encoding="UTF-8" standalone="no"?>
<!DOCTYPE svg PUBLIC "-//W3C//DTD SVG 1.1//EN" "http://www.w3.org/Graphics/SVG/1.1/DTD/svg11.dtd">
<svg width="100%" height="100%" viewBox="0 0 128 128" version="1.1" xmlns="http://www.w3.org/2000/svg" xmlns:xlink="http://www.w3.org/1999/xlink" xml:space="preserve" style="fill-rule:evenodd;clip-rule:evenodd;stroke-linejoin:round;stroke-miterlimit:1.41421;">
    <path d="M70,101L60,101L59,91L50,88L41,93L35,86L41,79L37,70L27,69L27,60L38,58L42,50L34,41L42,34L50,40L58,37L60,27L69,27L71,37L77,40L86,35L93,41L88,49L91,56L101,58L101,67L91,69L88,77L94,86L88,92L81,87L72,91L70,101ZM64,53C70.071,53 75,57.929 75,64C75,70.071 70.071,75 64,75C57.929,75 53,70.071 53,64C53,57.929 57.929,53 64,53Z"/>
</svg>
