<?xml version="1.0" encoding="UTF-8" standalone="no"?>
<!DOCTYPE svg PUBLIC "-//W3C//DTD SVG 1.1//EN" "http://www.w3.org/Graphics/SVG/1.1/DTD/svg11.dtd">
<svg width="100%" height="100%" viewBox="0 0 128 128" version="1.1" xmlns="http://www.w3.org/2000/svg" xmlns:xlink="http://www.w3.org/1999/xlink" xml:space="preserve" style="fill-rule:evenodd;clip-rule:evenodd;stroke-linejoin:round;stroke-miterlimit:1.41421;">
    <g transform="matrix(1,0,0,1,5.55736,-17.5)">
        <g transform="matrix(1,0,0,1,-1,9)">
            <circle cx="34" cy="72" r="12"/>
        </g>
        <g transform="matrix(0.866025,0.5,-0.5,0.866025,40.5409,11.6994)">
            <g transform="matrix(1,0,0,1,53,-8)">
                <circle cx="34" cy="72" r="12"/>
            </g>
            <g transform="matrix(1,0,0,0.421053,3.5,48.2105)">
                <rect x="25" y="28" width="65" height="19"/>
            </g>
        </g>
        <g transform="matrix(0.866025,-0.5,0.5,0.866025,-23.4591,40.4494)">
            <g transform="matrix(1,0,0,1,53,-8)">
                <circle cx="34" cy="72" r="12"/>
            </g>
            <g transform="matrix(1,0,0,0.421053,3.5,48.2105)">
                <rect x="25" y="28" width="65" height="19"/>
            </g>
        </g>
    </g>
</svg>
