<?xml version="1.0" encoding="UTF-8" standalone="no"?>
<!DOCTYPE svg PUBLIC "-//W3C//DTD SVG 1.1//EN" "http://www.w3.org/Graphics/SVG/1.1/DTD/svg11.dtd">
<svg width="100%" height="100%" viewBox="0 0 128 128" version="1.1" xmlns="http://www.w3.org/2000/svg" xmlns:xlink="http://www.w3.org/1999/xlink" xml:space="preserve" style="fill-rule:evenodd;clip-rule:evenodd;stroke-linejoin:round;stroke-miterlimit:1.5;">
    <g transform="matrix(1,0,0,1,8,2.06105)">
        <path d="M54.682,14.816C54.931,14.316 55.441,14 56,14C56.559,14 57.069,14.316 57.318,14.816L72.208,44.691L105.223,49.621C105.775,49.703 106.233,50.091 106.406,50.622C106.579,51.153 106.436,51.736 106.037,52.128L82.226,75.521L87.74,108.443C87.832,108.994 87.604,109.55 87.153,109.878C86.701,110.206 86.102,110.251 85.607,109.993L56,94.575L26.393,109.993C25.898,110.251 25.299,110.206 24.847,109.878C24.396,109.55 24.168,108.994 24.26,108.443L29.774,75.521L5.963,52.128C5.564,51.736 5.421,51.153 5.594,50.622C5.767,50.091 6.225,49.703 6.777,49.621L39.792,44.691L54.682,14.816Z" style="fill:none;stroke:black;stroke-width:17px;"/>
        <path d="M54.682,14.816C54.931,14.316 55.441,14 56,14C56.559,14 57.069,14.316 57.318,14.816L72.208,44.691L105.223,49.621C105.775,49.703 106.233,50.091 106.406,50.622C106.579,51.153 106.436,51.736 106.037,52.128L82.226,75.521L87.74,108.443C87.832,108.994 87.604,109.55 87.153,109.878C86.701,110.206 86.102,110.251 85.607,109.993L56,94.575L26.393,109.993C25.898,110.251 25.299,110.206 24.847,109.878C24.396,109.55 24.168,108.994 24.26,108.443L29.774,75.521L5.963,52.128C5.564,51.736 5.421,51.153 5.594,50.622C5.767,50.091 6.225,49.703 6.777,49.621L39.792,44.691L54.682,14.816Z" style="fill:white;"/>
    </g>
</svg>
