<?xml version="1.0" encoding="UTF-8" standalone="no"?>
<!DOCTYPE svg PUBLIC "-//W3C//DTD SVG 1.1//EN" "http://www.w3.org/Graphics/SVG/1.1/DTD/svg11.dtd">
<svg width="100%" height="100%" viewBox="0 0 128 128" version="1.1" xmlns="http://www.w3.org/2000/svg" xmlns:xlink="http://www.w3.org/1999/xlink" xml:space="preserve" style="fill-rule:evenodd;clip-rule:evenodd;stroke-linejoin:round;stroke-miterlimit:1.41421;">
    <g transform="matrix(1.18849,0,0,1.1123,-54.8503,-33.2019)">
        <path d="M100,52C103.705,52 111.351,75.376 111.351,75.376C111.351,75.376 135.977,75.52 137.091,78.948C138.236,82.472 118.367,96.968 118.367,96.968C118.367,96.968 125.84,120.433 122.924,122.552C119.926,124.73 100,110.312 100,110.312C100,110.312 79.993,124.671 77.076,122.552C74.079,120.374 81.633,96.968 81.633,96.968C81.633,96.968 61.795,82.377 62.909,78.948C64.054,75.424 88.649,75.376 88.649,75.376C88.649,75.376 96.395,52 100,52Z"/>
    </g>
</svg>
