<?xml version="1.0" encoding="UTF-8" standalone="no"?>
<!DOCTYPE svg PUBLIC "-//W3C//DTD SVG 1.1//EN" "http://www.w3.org/Graphics/SVG/1.1/DTD/svg11.dtd">
<svg width="100%" height="100%" viewBox="0 0 384 256" version="1.1" xmlns="http://www.w3.org/2000/svg" xmlns:xlink="http://www.w3.org/1999/xlink" xml:space="preserve" style="fill-rule:evenodd;clip-rule:evenodd;stroke-linejoin:round;stroke-miterlimit:1.41421;">
    <g transform="matrix(1.18849,0,0,1.1123,-54.8503,-33.202)">
        <path d="M100,52C103.705,52 111.351,75.376 111.351,75.376C111.351,75.376 135.977,75.52 137.091,78.948C138.236,82.472 118.367,96.968 118.367,96.968C118.367,96.968 125.84,120.433 122.924,122.552C119.926,124.73 100,110.312 100,110.312C100,110.312 79.993,124.671 77.076,122.552C74.079,120.374 81.633,96.968 81.633,96.968C81.633,96.968 61.795,82.377 62.909,78.948C64.054,75.424 88.649,75.376 88.649,75.376C88.649,75.376 96.395,52 100,52Z"/>
    </g>
    <path d="M192,103.362C192,103.362 220,67.855 220,52.638C220,37.184 207.454,24.638 192,24.638C176.546,24.638 164,37.184 164,52.638C164,67.855 192,103.362 192,103.362ZM192,37C200.831,37 208,44.169 208,53C208,61.831 200.831,69 192,69C183.169,69 176,61.831 176,53C176,44.169 183.169,37 192,37Z"/>
    <g transform="matrix(0.707107,-0.707107,0.707107,0.707107,63.6131,220.217)">
        <g transform="matrix(1,0,0,1,-12,-41)">
            <path d="M304,68C319.454,68 332,80.546 332,96C332,111.454 319.454,124 304,124C288.546,124 276,111.454 276,96C276,80.546 288.546,68 304,68ZM304,80C312.831,80 320,87.169 320,96C320,104.831 312.831,112 304,112C295.169,112 288,104.831 288,96C288,87.169 295.169,80 304,80Z"/>
        </g>
        <g transform="matrix(1,0,0,1,22,24)">
            <rect x="264" y="55" width="12" height="38"/>
        </g>
    </g>
    <g transform="matrix(1.18849,0,0,1.1123,-54.8503,94.798)">
        <path d="M100,52C103.705,52 111.351,75.376 111.351,75.376C111.351,75.376 135.977,75.52 137.091,78.948C138.236,82.472 118.367,96.968 118.367,96.968C118.367,96.968 125.84,120.433 122.924,122.552C119.926,124.73 100,110.312 100,110.312C100,110.312 79.993,124.671 77.076,122.552C74.079,120.374 81.633,96.968 81.633,96.968C81.633,96.968 61.795,82.377 62.909,78.948C64.054,75.424 88.649,75.376 88.649,75.376C88.649,75.376 96.395,52 100,52Z" style="fill:rgb(0,102,255);"/>
    </g>
    <g transform="matrix(1,0,0,1,0,128)">
        <path d="M192,103.362C192,103.362 220,67.855 220,52.638C220,37.184 207.454,24.638 192,24.638C176.546,24.638 164,37.184 164,52.638C164,67.855 192,103.362 192,103.362ZM192,37C200.831,37 208,44.169 208,53C208,61.831 200.831,69 192,69C183.169,69 176,61.831 176,53C176,44.169 183.169,37 192,37Z" style="fill:rgb(0,102,255);"/>
    </g>
    <g transform="matrix(0.707107,-0.707107,0.707107,0.707107,63.6131,348.217)">
        <g transform="matrix(1,0,0,1,-12,-41)">
            <path d="M304,68C319.454,68 332,80.546 332,96C332,111.454 319.454,124 304,124C288.546,124 276,111.454 276,96C276,80.546 288.546,68 304,68ZM304,80C312.831,80 320,87.169 320,96C320,104.831 312.831,112 304,112C295.169,112 288,104.831 288,96C288,87.169 295.169,80 304,80Z" style="fill:rgb(0,102,255);"/>
        </g>
        <g transform="matrix(1,0,0,1,22,24)">
            <rect x="264" y="55" width="12" height="38" style="fill:rgb(0,102,255);"/>
        </g>
    </g>
</svg>
