<?xml version="1.0" encoding="UTF-8" standalone="no"?>
<!DOCTYPE svg PUBLIC "-//W3C//DTD SVG 1.1//EN" "http://www.w3.org/Graphics/SVG/1.1/DTD/svg11.dtd">
<svg width="100%" height="100%" viewBox="0 0 1536 256" version="1.1" xmlns="http://www.w3.org/2000/svg" xmlns:xlink="http://www.w3.org/1999/xlink" xml:space="preserve" style="fill-rule:evenodd;clip-rule:evenodd;stroke-linejoin:round;stroke-miterlimit:1.5;">
    <g transform="matrix(1.18849,0,0,1.1123,-54.8503,-33.202)">
        <path d="M100,52C103.705,52 111.351,75.376 111.351,75.376C111.351,75.376 135.977,75.52 137.091,78.948C138.236,82.472 118.367,96.968 118.367,96.968C118.367,96.968 125.84,120.433 122.924,122.552C119.926,124.73 100,110.312 100,110.312C100,110.312 79.993,124.671 77.076,122.552C74.079,120.374 81.633,96.968 81.633,96.968C81.633,96.968 61.795,82.377 62.909,78.948C64.054,75.424 88.649,75.376 88.649,75.376C88.649,75.376 96.395,52 100,52Z"/>
    </g>
    <path d="M192,103.362C192,103.362 220,67.855 220,52.638C220,37.184 207.454,24.638 192,24.638C176.546,24.638 164,37.184 164,52.638C164,67.855 192,103.362 192,103.362ZM192,37C200.831,37 208,44.169 208,53C208,61.831 200.831,69 192,69C183.169,69 176,61.831 176,53C176,44.169 183.169,37 192,37Z"/>
    <g transform="matrix(0.707107,-0.707107,0.707107,0.707107,63.6131,220.217)">
        <g transform="matrix(1,0,0,1,-12,-41)">
            <path d="M304,68C319.454,68 332,80.546 332,96C332,111.454 319.454,124 304,124C288.546,124 276,111.454 276,96C276,80.546 288.546,68 304,68ZM304,80C312.831,80 320,87.169 320,96C320,104.831 312.831,112 304,112C295.169,112 288,104.831 288,96C288,87.169 295.169,80 304,80Z"/>
        </g>
        <g transform="matrix(1,0,0,1,22,24)">
            <rect x="264" y="55" width="12" height="38"/>
        </g>
    </g>
    <g transform="matrix(1.18849,0,0,1.1123,-54.8503,94.798)">
        <path d="M100,52C103.705,52 111.351,75.376 111.351,75.376C111.351,75.376 135.977,75.52 137.091,78.948C138.236,82.472 118.367,96.968 118.367,96.968C118.367,96.968 125.84,120.433 122.924,122.552C119.926,124.73 100,110.312 100,110.312C100,110.312 79.993,124.671 77.076,122.552C74.079,120.374 81.633,96.968 81.633,96.968C81.633,96.968 61.795,82.377 62.909,78.948C64.054,75.424 88.649,75.376 88.649,75.376C88.649,75.376 96.395,52 100,52Z" style="fill:rgb(0,102,255);"/>
    </g>
    <g transform="matrix(1,0,0,1,0,128)">
        <path d="M192,103.362C192,103.362 220,67.855 220,52.638C220,37.184 207.454,24.638 192,24.638C176.546,24.638 164,37.184 164,52.638C164,67.855 192,103.362 192,103.362ZM192,37C200.831,37 208,44.169 208,53C208,61.831 200.831,69 192,69C183.169,69 176,61.831 176,53C176,44.169 183.169,37 192,37Z" style="fill:rgb(0,102,255);"/>
    </g>
    <g transform="matrix(0.707107,-0.707107,0.707107,0.707107,63.6131,348.217)">
        <g transform="matrix(1,0,0,1,-12,-41)">
            <path d="M304,68C319.454,68 332,80.546 332,96C332,111.454 319.454,124 304,124C288.546,124 276,111.454 276,96C276,80.546 288.546,68 304,68ZM304,80C312.831,80 320,87.169 320,96C320,104.831 312.831,112 304,112C295.169,112 288,104.831 288,96C288,87.169 295.169,80 304,80Z" style="fill:rgb(0,102,255);"/>
        </g>
        <g transform="matrix(1,0,0,1,22,24)">
            <rect x="264" y="55" width="12" height="38" style="fill:rgb(0,102,255);"/>
        </g>
    </g>
    <g transform="matrix(1,1.11022e-16,-1.11022e-16,1,382.048,2.43529)">
        <path d="M34.909,78.166L49.35,92.608L29.783,97.734L34.909,78.166ZM38.533,74.134L72.72,39.948L87.569,54.797L53.383,88.983L38.533,74.134ZM76.548,36.119L86.174,26.493C87.638,25.03 90.014,25.03 91.478,26.493L101.024,36.039C102.487,37.502 102.487,39.879 101.024,41.342L91.397,50.969L76.548,36.119Z"/>
    </g>
    <g transform="matrix(1.26364,0,0,1.26364,500.886,-27.6136)">
        <circle cx="34" cy="72" r="12"/>
    </g>
    <g transform="matrix(1.09434,0.631818,-0.631818,1.09434,553.379,-24.2026)">
        <g transform="matrix(1,0,0,1,53,-8)">
            <circle cx="34" cy="72" r="12"/>
        </g>
        <g transform="matrix(1,0,0,0.421053,3.5,48.2105)">
            <rect x="25" y="28" width="65" height="19"/>
        </g>
    </g>
    <g transform="matrix(1.09434,-0.631818,0.631818,1.09434,472.506,12.127)">
        <g transform="matrix(1,0,0,1,53,-8)">
            <circle cx="34" cy="72" r="12"/>
        </g>
        <g transform="matrix(1,0,0,0.421053,3.5,48.2105)">
            <rect x="25" y="28" width="65" height="19"/>
        </g>
    </g>
    <g transform="matrix(1,0,0,1,640,-0.00013752)">
        <path d="M70,101L60,101L59,91L50,88L41,93L35,86L41,79L37,70L27,69L27,60L38,58L42,50L34,41L42,34L50,40L58,37L60,27L69,27L71,37L77,40L86,35L93,41L88,49L91,56L101,58L101,67L91,69L88,77L94,86L88,92L81,87L72,91L70,101ZM64,53C70.071,53 75,57.929 75,64C75,70.071 70.071,75 64,75C57.929,75 53,70.071 53,64C53,57.929 57.929,53 64,53Z"/>
    </g>
    <g transform="matrix(0.795181,0,0,0.694444,781.108,22.6804)">
        <g>
            <g>
                <g transform="matrix(0.846939,0,0,0.571429,12.3367,43.2143)">
                    <path d="M110,23.25C110,20.352 108.614,18 106.907,18L15.093,18C13.386,18 12,20.352 12,23.25L12,33.75C12,36.648 13.386,39 15.093,39L106.907,39C108.614,39 110,36.648 110,33.75L110,23.25Z"/>
                </g>
                <g transform="matrix(0.846939,0,0,0.571429,12.3367,73.2143)">
                    <path d="M110,23.25C110,20.352 108.614,18 106.907,18L15.093,18C13.386,18 12,20.352 12,23.25L12,33.75C12,36.648 13.386,39 15.093,39L106.907,39C108.614,39 110,36.648 110,33.75L110,23.25Z"/>
                </g>
                <g transform="matrix(0.846939,0,0,0.571429,12.3367,13.2143)">
                    <path d="M110,23.25C110,20.352 108.614,18 106.907,18L15.093,18C13.386,18 12,20.352 12,23.25L12,33.75C12,36.648 13.386,39 15.093,39L106.907,39C108.614,39 110,36.648 110,33.75L110,23.25Z"/>
                </g>
            </g>
        </g>
    </g>
    <g transform="matrix(1,0,0,1,919.242,17.4171)">
        <g transform="matrix(1,0,0,1,-18.3332,-4.53531)">
            <g transform="matrix(0.707107,0.707107,-0.707107,0.707107,53.4534,-26.8115)">
                <path d="M97.182,48.059C97.182,46.371 95.811,45 94.123,45L24.059,45C22.371,45 21,46.371 21,48.059L21,54.177C21,55.866 22.371,57.236 24.059,57.236L94.123,57.236C95.811,57.236 97.182,55.866 97.182,54.177L97.182,48.059Z"/>
            </g>
            <g transform="matrix(-0.707107,0.707107,-0.707107,-0.707107,137.021,45.4805)">
                <path d="M97.182,48.059C97.182,46.371 95.811,45 94.123,45L24.059,45C22.371,45 21,46.371 21,48.059L21,54.177C21,55.866 22.371,57.236 24.059,57.236L94.123,57.236C95.811,57.236 97.182,55.866 97.182,54.177L97.182,48.059Z"/>
            </g>
        </g>
        <g transform="matrix(1,0,0,1,0,-1.83221)">
            <g transform="matrix(0.410338,0.410338,-0.707107,0.707107,414.328,-0.849298)">
                <path d="M97.182,48.059C97.182,46.371 95.811,45 94.123,45L24.059,45C22.371,45 21,46.371 21,48.059L21,54.177C21,55.866 22.371,57.236 24.059,57.236L94.123,57.236C95.811,57.236 97.182,55.866 97.182,54.177L97.182,48.059Z"/>
            </g>
            <g transform="matrix(-0.707107,0.707107,-0.707107,-0.707107,514.062,42.6021)">
                <path d="M97.182,48.059C97.182,46.371 95.811,45 94.123,45L24.059,45C22.371,45 21,46.371 21,48.059L21,54.177C21,55.866 22.371,57.236 24.059,57.236L94.123,57.236C95.811,57.236 97.182,55.866 97.182,54.177L97.182,48.059Z"/>
            </g>
        </g>
        <g transform="matrix(1,0,0,1,0,126.168)">
            <g transform="matrix(0.410338,0.410338,-0.707107,0.707107,414.328,-0.849298)">
                <path d="M97.182,48.059C97.182,46.371 95.811,45 94.123,45L24.059,45C22.371,45 21,46.371 21,48.059L21,54.177C21,55.866 22.371,57.236 24.059,57.236L94.123,57.236C95.811,57.236 97.182,55.866 97.182,54.177L97.182,48.059Z" style="fill:rgb(0,102,255);"/>
            </g>
            <g transform="matrix(-0.707107,0.707107,-0.707107,-0.707107,514.062,42.6021)">
                <path d="M97.182,48.059C97.182,46.371 95.811,45 94.123,45L24.059,45C22.371,45 21,46.371 21,48.059L21,54.177C21,55.866 22.371,57.236 24.059,57.236L94.123,57.236C95.811,57.236 97.182,55.866 97.182,54.177L97.182,48.059Z" style="fill:rgb(0,102,255);"/>
            </g>
        </g>
    </g>
    <g transform="matrix(1,0,0,1,1024,10.6703)">
        <path d="M64,55.348L84.446,34.903C85.639,33.709 87.577,33.708 88.772,34.903L93.098,39.229C94.291,40.422 94.291,42.361 93.098,43.555L64,72.652L34.903,43.555C33.709,42.361 33.708,40.423 34.903,39.228L39.229,34.902C40.422,33.709 42.361,33.709 43.555,34.902L64,55.348Z"/>
    </g>
    <g transform="matrix(1,1.11022e-16,-1.11022e-16,1,382.048,130.435)">
        <path d="M34.909,78.166L49.35,92.608L29.783,97.734L34.909,78.166ZM38.533,74.134L72.72,39.948L87.569,54.797L53.383,88.983L38.533,74.134ZM76.548,36.119L86.174,26.493C87.638,25.03 90.014,25.03 91.478,26.493L101.024,36.039C102.487,37.502 102.487,39.879 101.024,41.342L91.397,50.969L76.548,36.119Z" style="fill:rgb(0,102,255);"/>
    </g>
    <g transform="matrix(1.26364,0,0,1.26364,500.886,100.386)">
        <circle cx="34" cy="72" r="12" style="fill:rgb(0,102,255);"/>
    </g>
    <g transform="matrix(1.09434,0.631818,-0.631818,1.09434,553.379,103.797)">
        <g transform="matrix(1,0,0,1,53,-8)">
            <circle cx="34" cy="72" r="12" style="fill:rgb(0,102,255);"/>
        </g>
        <g transform="matrix(1,0,0,0.421053,3.5,48.2105)">
            <rect x="25" y="28" width="65" height="19" style="fill:rgb(0,102,255);"/>
        </g>
    </g>
    <g transform="matrix(1.09434,-0.631818,0.631818,1.09434,472.506,140.127)">
        <g transform="matrix(1,0,0,1,53,-8)">
            <circle cx="34" cy="72" r="12" style="fill:rgb(0,102,255);"/>
        </g>
        <g transform="matrix(1,0,0,0.421053,3.5,48.2105)">
            <rect x="25" y="28" width="65" height="19" style="fill:rgb(0,102,255);"/>
        </g>
    </g>
    <g transform="matrix(1,0,0,1,640,128)">
        <path d="M70,101L60,101L59,91L50,88L41,93L35,86L41,79L37,70L27,69L27,60L38,58L42,50L34,41L42,34L50,40L58,37L60,27L69,27L71,37L77,40L86,35L93,41L88,49L91,56L101,58L101,67L91,69L88,77L94,86L88,92L81,87L72,91L70,101ZM64,53C70.071,53 75,57.929 75,64C75,70.071 70.071,75 64,75C57.929,75 53,70.071 53,64C53,57.929 57.929,53 64,53Z" style="fill:rgb(0,102,255);"/>
    </g>
    <g transform="matrix(0.795181,0,0,0.694444,781.108,150.68)">
        <g transform="matrix(0.846939,0,0,0.571429,12.3367,43.2143)">
            <path d="M110,23.25C110,20.352 108.614,18 106.907,18L15.093,18C13.386,18 12,20.352 12,23.25L12,33.75C12,36.648 13.386,39 15.093,39L106.907,39C108.614,39 110,36.648 110,33.75L110,23.25Z" style="fill:rgb(0,102,255);"/>
        </g>
        <g transform="matrix(0.846939,0,0,0.571429,12.3367,73.2143)">
            <path d="M110,23.25C110,20.352 108.614,18 106.907,18L15.093,18C13.386,18 12,20.352 12,23.25L12,33.75C12,36.648 13.386,39 15.093,39L106.907,39C108.614,39 110,36.648 110,33.75L110,23.25Z" style="fill:rgb(0,102,255);"/>
        </g>
        <g transform="matrix(0.846939,0,0,0.571429,12.3367,13.2143)">
            <path d="M110,23.25C110,20.352 108.614,18 106.907,18L15.093,18C13.386,18 12,20.352 12,23.25L12,33.75C12,36.648 13.386,39 15.093,39L106.907,39C108.614,39 110,36.648 110,33.75L110,23.25Z" style="fill:rgb(0,102,255);"/>
        </g>
    </g>
    <g transform="matrix(1,0,0,1,900.909,140.882)">
        <g transform="matrix(0.707107,0.707107,-0.707107,0.707107,53.4534,-26.8115)">
            <path d="M97.182,48.059C97.182,46.371 95.811,45 94.123,45L24.059,45C22.371,45 21,46.371 21,48.059L21,54.177C21,55.866 22.371,57.236 24.059,57.236L94.123,57.236C95.811,57.236 97.182,55.866 97.182,54.177L97.182,48.059Z" style="fill:rgb(0,102,255);"/>
        </g>
        <g transform="matrix(-0.707107,0.707107,-0.707107,-0.707107,137.021,45.4805)">
            <path d="M97.182,48.059C97.182,46.371 95.811,45 94.123,45L24.059,45C22.371,45 21,46.371 21,48.059L21,54.177C21,55.866 22.371,57.236 24.059,57.236L94.123,57.236C95.811,57.236 97.182,55.866 97.182,54.177L97.182,48.059Z" style="fill:rgb(0,102,255);"/>
        </g>
    </g>
    <g transform="matrix(1,0,0,1,1024,138.67)">
        <path d="M64,55.348L84.446,34.903C85.639,33.709 87.577,33.708 88.772,34.903L93.098,39.229C94.291,40.422 94.291,42.361 93.098,43.555L64,72.652L34.903,43.555C33.709,42.361 33.708,40.423 34.903,39.228L39.229,34.902C40.422,33.709 42.361,33.709 43.555,34.902L64,55.348Z" style="fill:rgb(0,102,255);"/>
    </g>
    <g transform="matrix(1,0,0,1,1216,64)">
        <g transform="matrix(1,0,0,1,-64,-64)">
            <g transform="matrix(1,0,0,1,8,2.06105)">
                <path d="M54.682,14.816C54.931,14.316 55.441,14 56,14C56.559,14 57.069,14.316 57.318,14.816L72.208,44.691L105.223,49.621C105.775,49.703 106.233,50.091 106.406,50.622C106.579,51.153 106.436,51.736 106.037,52.128L82.226,75.521L87.74,108.443C87.832,108.994 87.604,109.55 87.153,109.878C86.701,110.206 86.102,110.251 85.607,109.993L56,94.575L26.393,109.993C25.898,110.251 25.299,110.206 24.847,109.878C24.396,109.55 24.168,108.994 24.26,108.443L29.774,75.521L5.963,52.128C5.564,51.736 5.421,51.153 5.594,50.622C5.767,50.091 6.225,49.703 6.777,49.621L39.792,44.691L54.682,14.816Z" style="fill:none;stroke:black;stroke-width:17px;"/>
                <path d="M54.682,14.816C54.931,14.316 55.441,14 56,14C56.559,14 57.069,14.316 57.318,14.816L72.208,44.691L105.223,49.621C105.775,49.703 106.233,50.091 106.406,50.622C106.579,51.153 106.436,51.736 106.037,52.128L82.226,75.521L87.74,108.443C87.832,108.994 87.604,109.55 87.153,109.878C86.701,110.206 86.102,110.251 85.607,109.993L56,94.575L26.393,109.993C25.898,110.251 25.299,110.206 24.847,109.878C24.396,109.55 24.168,108.994 24.26,108.443L29.774,75.521L5.963,52.128C5.564,51.736 5.421,51.153 5.594,50.622C5.767,50.091 6.225,49.703 6.777,49.621L39.792,44.691L54.682,14.816Z" style="fill:white;"/>
            </g>
        </g>
    </g>
    <g transform="matrix(1,0,0,1,1216,192)">
        <g transform="matrix(1,0,0,1,-64,-64)">
            <g transform="matrix(1,0,0,1,8,2.06105)">
                <path d="M54.682,14.816C54.931,14.316 55.441,14 56,14C56.559,14 57.069,14.316 57.318,14.816L72.208,44.691L105.223,49.621C105.775,49.703 106.233,50.091 106.406,50.622C106.579,51.153 106.436,51.736 106.037,52.128L82.226,75.521L87.74,108.443C87.832,108.994 87.604,109.55 87.153,109.878C86.701,110.206 86.102,110.251 85.607,109.993L56,94.575L26.393,109.993C25.898,110.251 25.299,110.206 24.847,109.878C24.396,109.55 24.168,108.994 24.26,108.443L29.774,75.521L5.963,52.128C5.564,51.736 5.421,51.153 5.594,50.622C5.767,50.091 6.225,49.703 6.777,49.621L39.792,44.691L54.682,14.816Z" style="fill:none;stroke:black;stroke-width:17px;"/>
                <path d="M54.682,14.816C54.931,14.316 55.441,14 56,14C56.559,14 57.069,14.316 57.318,14.816L72.208,44.691L105.223,49.621C105.775,49.703 106.233,50.091 106.406,50.622C106.579,51.153 106.436,51.736 106.037,52.128L82.226,75.521L87.74,108.443C87.832,108.994 87.604,109.55 87.153,109.878C86.701,110.206 86.102,110.251 85.607,109.993L56,94.575L26.393,109.993C25.898,110.251 25.299,110.206 24.847,109.878C24.396,109.55 24.168,108.994 24.26,108.443L29.774,75.521L5.963,52.128C5.564,51.736 5.421,51.153 5.594,50.622C5.767,50.091 6.225,49.703 6.777,49.621L39.792,44.691L54.682,14.816Z" style="fill:rgb(255,250,0);"/>
            </g>
        </g>
    </g>
</svg>
