<svg xmlns="http://www.w3.org/2000/svg" xmlns:xlink="http://www.w3.org/1999/xlink" version="1.1" x="0px" y="0px" viewBox="0 0 64 64" enable-background="new 0 0 64 64" xml:space="preserve"><g><path fill="#000000" d="M30.568,61.657c-0.999,0-2.018-0.046-3.03-0.136c-7.861-0.7-14.4-4.283-19.434-10.648   c-0.98-1.238-1.843-2.548-2.677-3.816c-0.364-0.552-0.727-1.104-1.1-1.65c-0.943-1.379-0.899-2.893,0.117-4.049   c0.917-1.045,2.213-1.361,3.748-0.788c3.771,1.407,7.539,1.956,11.209,1.629c6.208-0.55,11.5-3.167,15.729-7.779   c3.431-3.741,5.548-8.141,6.291-13.078c0.711-4.719-0.032-9.454-2.208-14.071c-0.285-0.606-0.868-1.846-0.086-3.247   c0.58-1.037,1.75-1.68,3.053-1.68c0.613,0,1.233,0.143,1.792,0.413c3.374,1.632,6.35,3.698,8.843,6.142   c4.959,4.86,7.952,10.77,8.896,17.565c0.147,1.059,0.228,2.115,0.305,3.136c0.034,0.449,0.069,0.898,0.109,1.346l0.008,0.17   c0.013,12.657-7.839,23.812-20.006,28.419C38.409,60.943,34.521,61.657,30.568,61.657z M8.571,44.791   c0.03,0.045,0.06,0.091,0.09,0.136c0.825,1.254,1.605,2.437,2.481,3.543c4.348,5.498,9.981,8.592,16.741,9.193   c4.433,0.395,8.764-0.194,12.872-1.749c10.619-4.021,17.482-13.715,17.505-24.711c-0.038-0.436-0.072-0.872-0.105-1.308   c-0.077-1.006-0.149-1.957-0.28-2.897c-0.823-5.928-3.438-11.087-7.772-15.334c-1.965-1.926-4.283-3.592-6.9-4.96   c2.131,4.985,2.819,10.096,2.048,15.215c-0.86,5.713-3.304,10.799-7.266,15.118c-4.902,5.346-11.039,8.381-18.24,9.019   C16.063,46.381,12.313,45.956,8.571,44.791z"></path><path fill="#000000" d="M16.357,3.103c0.334,0.714,0.65,1.437,1.013,2.135c0.113,0.218,0.324,0.428,0.542,0.541   c0.664,0.345,1.352,0.64,2.153,1.011c-0.738,0.341-1.402,0.607-2.022,0.952c-0.294,0.163-0.576,0.437-0.739,0.729   c-0.344,0.617-0.606,1.28-0.955,2.041c-0.341-0.74-0.607-1.407-0.953-2.029c-0.164-0.294-0.442-0.573-0.736-0.737   c-0.617-0.343-1.278-0.604-2.035-0.951c0.762-0.355,1.442-0.638,2.087-0.988c0.262-0.142,0.518-0.391,0.65-0.655   c0.332-0.664,0.591-1.364,0.88-2.05C16.28,3.103,16.318,3.103,16.357,3.103z"></path><path fill="#000000" d="M19.261,29.403c0.334,0.714,0.65,1.437,1.013,2.135c0.113,0.218,0.324,0.428,0.542,0.541   c0.664,0.345,1.352,0.64,2.153,1.011c-0.738,0.341-1.402,0.607-2.022,0.952c-0.294,0.163-0.576,0.437-0.739,0.729   c-0.344,0.617-0.606,1.28-0.955,2.041c-0.341-0.74-0.607-1.407-0.953-2.029c-0.164-0.294-0.442-0.573-0.736-0.737   c-0.617-0.343-1.278-0.604-2.035-0.951c0.762-0.355,1.442-0.638,2.087-0.988c0.262-0.142,0.518-0.391,0.65-0.655   c0.332-0.664,0.591-1.364,0.88-2.05C19.184,29.403,19.222,29.403,19.261,29.403z"></path><path fill="#000000" d="M28.543,24.876c-0.631-1.372-1.11-2.572-1.731-3.694c-0.295-0.533-0.789-1.042-1.318-1.341   c-1.119-0.633-2.32-1.122-3.704-1.772c1.4-0.664,2.64-1.199,3.822-1.84c0.449-0.244,0.881-0.67,1.122-1.119   c0.626-1.167,1.143-2.394,1.806-3.818c0.648,1.382,1.167,2.614,1.803,3.783c0.26,0.478,0.706,0.939,1.182,1.197   c1.16,0.627,2.387,1.131,3.812,1.787c-1.363,0.627-2.555,1.093-3.659,1.717c-0.562,0.318-1.093,0.846-1.409,1.407   C29.641,22.297,29.173,23.498,28.543,24.876z"></path><path fill="#000000" d="M7.345,17.551c0.369,0.78,0.739,1.344,0.908,1.963c0.401,1.473,1.429,2.221,2.776,2.699   c0.558,0.198,1.082,0.489,1.79,0.815c-1.09,0.51-2.075,0.915-3.001,1.428c-0.412,0.228-0.804,0.618-1.033,1.03   c-0.507,0.915-0.904,1.891-1.43,3.022c-0.498-1.053-0.965-1.962-1.358-2.902c-0.259-0.62-0.663-1.004-1.279-1.258   c-0.911-0.376-1.793-0.822-2.85-1.314c1.126-0.526,2.129-0.953,3.086-1.465c0.366-0.196,0.722-0.539,0.917-0.903   C6.389,19.701,6.816,18.687,7.345,17.551z"></path></g></svg>