<svg xmlns="http://www.w3.org/2000/svg" xmlns:xlink="http://www.w3.org/1999/xlink" version="1.1" x="0px" y="0px" viewBox="0 0 64 64" enable-background="new 0 0 64 64" xml:space="preserve"><g><path fill="#000000" d="M60.678,39.408c-0.646-0.571-1.322-1.076-1.976-1.565c-2.212-1.654-3.571-2.778-3.629-4.96   c-0.053-2.036,1.143-3.108,3.099-4.689c0.836-0.675,1.7-1.373,2.457-2.235l1.497-1.705l-2.256-0.246   c-0.583-0.063-1.184-0.106-1.765-0.148c-3.216-0.229-5.214-0.509-5.845-2.456c-0.542-1.672-0.224-3.767,0.084-5.794   c0.14-0.922,0.285-1.874,0.344-2.774l0.131-1.991l-1.807,0.845c-2.546,1.191-4.364,1.746-5.719,1.746   c-1.846,0-3.843-1.005-4.649-8.463l-0.315-2.912L38.541,4.38c-2.89,3.741-4.916,5.409-6.569,5.409   c-1.826,0-3.826-2.046-6.461-5.347l-1.526-1.913L23.44,4.915c-0.178,0.78-0.287,1.575-0.392,2.344   c-0.317,2.322-0.591,4.328-2.585,5.471c-0.645,0.37-1.302,0.549-2.009,0.549c-1.203,0-2.459-0.508-3.789-1.046   c-0.869-0.351-1.766-0.715-2.709-0.96l-2.037-0.53l0.612,2.014c0.273,0.898,0.642,1.743,0.998,2.559   c1.05,2.404,1.636,3.971,0.505,5.817c-1.225,1.998-3.212,2.254-5.729,2.579c-0.794,0.102-1.615,0.208-2.433,0.381L1.517,24.59   l1.838,1.556c0.587,0.497,1.199,0.953,1.791,1.393c2.319,1.724,3.742,2.893,3.783,5.109c0.04,2.145-1.496,3.357-3.273,4.76   c-0.738,0.583-1.501,1.185-2.178,1.882l-1.458,1.502l2.041,0.468c4.386,1.006,7.034,1.613,7.743,2.758   c0.73,1.179,0.092,3.828-1.066,8.636l-0.501,2.079l2.026-0.686c0.743-0.252,1.479-0.567,2.19-0.873   c1.396-0.599,2.715-1.165,3.845-1.165c0.708,0,1.288,0.231,1.827,0.727c1.266,1.166,2.049,3.091,2.806,4.952   c0.358,0.88,0.728,1.79,1.153,2.634l0.771,1.532l1.155-1.269c0.446-0.49,0.852-1.057,1.281-1.657   c1.071-1.497,2.178-3.045,3.742-3.045c0.239,0,0.494,0.034,0.759,0.101c1.72,0.434,3.356,1.774,4.937,3.071   c0.729,0.598,1.483,1.216,2.242,1.742l1.646,1.14l0.198-1.992c0.041-0.412,0.069-0.845,0.096-1.264   c0.153-2.374,0.297-4.616,2.559-5.885c0.672-0.377,1.361-0.56,2.106-0.56c1.352,0,2.784,0.595,4.3,1.224   c0.706,0.293,1.436,0.596,2.191,0.853l2.506,0.852l-1.043-2.433c-0.208-0.485-0.427-0.963-0.639-1.425   c-1.155-2.52-2.152-4.697-0.964-6.921c1.056-1.976,2.873-2.274,5.75-2.598c0.795-0.089,1.618-0.182,2.44-0.338l2.366-0.448   L60.678,39.408z M49.859,32.882C49.784,43.029,41.99,50.68,31.731,50.68c-0.067,0-0.136,0-0.203-0.001   c-4.681-0.047-9.098-1.977-12.436-5.434c-3.343-3.462-5.157-7.991-5.107-12.752c0.101-9.746,8.215-17.674,18.088-17.674   c0.073,0,0.147,0,0.221,0.001C42.217,14.936,49.934,22.87,49.859,32.882z"></path><path fill="#000000" d="M41.334,21.938c2.917,0.848,5.887,7.203,5.625,11.693c-0.433,7.419-5.452,13.271-12.461,14.482   c-6.918,1.195-13.005-2.739-14.534-6.107c6.767,3.818,13.213,3.762,18.776-1.497C44.331,35.225,44.704,28.784,41.334,21.938z"></path></g></svg>