<svg xmlns="http://www.w3.org/2000/svg" xmlns:xlink="http://www.w3.org/1999/xlink" version="1.1" x="0px" y="0px" viewBox="0 0 64 64" enable-background="new 0 0 64 64" xml:space="preserve"><g><path fill="#000000" d="M49.459,35.188h-0.384c0.083-3.604-0.737-6.616-2.508-9.209c-2.223-3.239-5.321-5.342-9.21-6.252   c-0.985-0.219-1.984-0.329-2.967-0.329c-3.817,0-9.079,1.676-12.392,6.37l-0.008,0.011c-1.216-0.486-2.561-0.743-3.887-0.743   c-5.434,0-10.114,4.23-10.654,9.623l-0.004,0.002c-0.567,0.327-1.068,0.659-1.583,1.049c-1.537,1.214-2.752,2.848-3.517,4.729   c-1.196,3.04-1.017,6.428,0.489,9.295c2.117,4.058,5.713,6.207,10.399,6.217H47.98c0.802,0,1.407,0,1.982-0.019   c3.15-0.107,6.047-1.659,7.95-4.257c1.894-2.611,2.48-5.847,1.607-8.879C58.224,38.265,54.182,35.208,49.459,35.188z    M48.448,53.029l-35.213-0.01c-3.568-0.009-6.195-1.569-7.809-4.637c-1.104-2.12-1.233-4.625-0.356-6.865   c0.567-1.391,1.46-2.598,2.574-3.484c0.638-0.483,1.214-0.832,1.812-1.099l0.851-0.385l0.014-0.924   c0.07-4.223,3.561-7.659,7.782-7.659c1.308,0,2.593,0.329,3.719,0.955l1.241,0.675l0.862-1.446   c0.079-0.128,0.156-0.257,0.263-0.402c2.651-3.996,7.008-5.419,10.202-5.419c0.808,0,1.587,0.084,2.309,0.25   c3.158,0.744,5.66,2.447,7.438,5.064c1.624,2.351,2.251,5.299,1.912,9.052v1.433h3.408c3.403,0.009,6.312,2.209,7.24,5.478   c0.625,2.154,0.203,4.468-1.155,6.345c-1.362,1.859-3.439,2.97-5.702,3.049C49.426,53.02,48.974,53.029,48.448,53.029z"></path><path fill="#000000" d="M60.772,34.09c-0.649,0.9-1.471,1.665-2.401,2.246c-0.9-0.862-1.926-1.588-3.04-2.149   c1.133-0.3,2.13-1.007,2.856-1.994c0.978-1.346,1.278-3.011,0.833-4.569c-0.668-2.372-2.778-3.969-5.247-3.969h-3.127v-1.617   c0.261-2.827-0.194-5.044-1.404-6.815c-1.346-1.956-3.224-3.224-5.566-3.776c-0.552-0.126-1.123-0.184-1.714-0.184   c-2.381,0-5.634,1.065-7.619,4.047c-0.106,0.165-0.213,0.319-0.3,0.465l-0.736,1.239L33.25,17.12l-0.165-0.087l-1.2-0.658   c-0.823-0.455-1.752-0.697-2.691-0.697c-2.875,0-5.286,2.198-5.605,4.986c0,0.01,0,0.01,0,0.01   c-0.871,0.658-1.704,1.423-2.469,2.304c-0.987-0.242-2.004-0.358-3.02-0.358c-0.145,0-0.281,0-0.426,0.01   c0.445-0.62,1.007-1.191,1.636-1.694c0.416-0.31,0.765-0.552,1.094-0.736c0.561-4.356,4.376-7.735,8.79-7.735   c0.958,0,1.946,0.174,2.885,0.494c2.711-3.611,6.854-4.908,9.884-4.908c0.833,0,1.655,0.087,2.43,0.261   c3.175,0.755,5.702,2.469,7.493,5.102c1.375,2.004,2.052,4.308,2.052,7.028c3.843,0.077,7.115,2.585,8.171,6.283   C62.834,29.24,62.35,31.922,60.772,34.09z"></path></g></svg>