<svg xmlns="http://www.w3.org/2000/svg" xmlns:xlink="http://www.w3.org/1999/xlink" version="1.1" x="0px" y="0px" viewBox="0 0 64 64" enable-background="new 0 0 64 64" xml:space="preserve"><g><path fill="#000000" d="M62.979,21.48c-0.019,0.029-0.029,0.058-0.039,0.087c-0.397,0.774-0.775,1.51-1.21,2.198   c-2.169,3.456-5.218,5.595-9.081,6.36c-0.571,0.116-1.133,0.194-1.704,0.252c-0.194-0.319-0.397-0.639-0.61-0.958   c-2.788-4.066-6.67-6.709-11.559-7.851c-1.229-0.281-2.517-0.426-3.824-0.426c-0.106,0-0.223,0-0.339,0.01   c-0.591-1.365-0.997-2.836-1.162-4.376c0-0.252-0.01-0.503-0.019-0.755c-0.019-0.591-0.039-1.142-0.019-1.694   c0.097-3.475,1.288-6.612,3.514-9.332c1.016-1.239,2.246-2.343,3.669-3.301c-0.91,3.011-0.987,6.002-0.223,8.906   c0.862,3.243,2.585,6.021,5.15,8.267c3.166,2.778,6.893,4.134,11.085,4.056C58.758,22.874,60.897,22.39,62.979,21.48z"></path><path fill="#000000" d="M60.928,48.715c-1.336-4.686-5.518-7.842-10.397-7.871h-0.397c0.087-3.717-0.765-6.835-2.594-9.516   c-2.294-3.35-5.499-5.518-9.516-6.457c-1.016-0.232-2.052-0.339-3.069-0.339c-3.95,0-9.381,1.723-12.808,6.583l-0.01,0.01   c-1.258-0.503-2.643-0.765-4.018-0.765c-5.615,0-10.455,4.366-11.017,9.942c-0.591,0.339-1.104,0.687-1.636,1.084   c-1.588,1.258-2.846,2.943-3.64,4.889c-1.229,3.146-1.046,6.651,0.513,9.613c1.8,3.441,4.631,5.519,8.254,6.179l-0.044,0.239   h38.452c0.833,0,1.452,0,2.052-0.01c3.253-0.116,6.244-1.723,8.209-4.405C61.228,55.192,61.828,51.842,60.928,48.715z    M56.823,56.112c-1.413,1.917-3.563,3.069-5.896,3.156c-0.436,0.01-0.9,0.019-1.442,0.019L13.55,59.278l0.001-0.001h-0.465   c-2.43,0-4.434-0.697-5.973-2.062c-0.387-0.339-0.755-0.726-1.094-1.162c-0.368-0.474-0.697-0.987-1.007-1.568   c-1.142-2.188-1.268-4.773-0.368-7.096c0.591-1.433,1.51-2.682,2.662-3.601c0.658-0.494,1.258-0.852,1.878-1.133l0.881-0.397   l0.01-0.958c0.077-4.366,3.679-7.919,8.045-7.919c1.355,0,2.682,0.349,3.843,0.987l1.278,0.707l0.891-1.491   c0.087-0.136,0.165-0.271,0.281-0.426c2.74-4.134,7.241-5.605,10.542-5.605c0.833,0,1.636,0.087,2.391,0.261   c3.262,0.774,5.847,2.527,7.687,5.237c1.675,2.43,2.323,5.479,1.975,9.361v1.481h3.524c3.514,0,6.525,2.275,7.483,5.654   C58.663,51.775,58.227,54.166,56.823,56.112z"></path></g></svg>