<svg xmlns="http://www.w3.org/2000/svg" xmlns:xlink="http://www.w3.org/1999/xlink" version="1.1" x="0px" y="0px" viewBox="0 0 64 64" enable-background="new 0 0 64 64" xml:space="preserve"><g><path fill="#000000" d="M53.348,56.729c3.063-0.105,5.882-1.616,7.734-4.145c1.841-2.539,2.411-5.687,1.561-8.636   c-1.218-4.264-4.864-7.162-9.29-7.387l-0.628-0.031l-0.013-0.629c-0.062-3.1-0.856-5.725-2.427-8.026   c-2.147-3.128-5.144-5.16-8.905-6.041c-0.945-0.209-1.911-0.317-2.864-0.317c-3.492,0-8.372,1.482-11.591,5.64l-0.291,0.375   l-0.451-0.147c-1.011-0.328-2.107-0.502-3.17-0.502c-5.145,0-9.576,3.839-10.306,8.93l-0.045,0.314l-0.27,0.166   c-0.404,0.247-0.778,0.503-1.176,0.806c-1.482,1.171-2.664,2.761-3.407,4.59c-1.159,2.945-0.986,6.236,0.478,9.021   c1.093,2.089,2.887,3.955,4.924,5.125c1.473,0.845,2.905,0.914,4.491,0.914l12.849-0.005h20.901   C52.239,56.746,52.795,56.746,53.348,56.729z M18.381,53.523c-2.185-0.008-3.992-0.635-5.375-1.862   c-0.338-0.291-0.667-0.644-0.97-1.04c-0.321-0.408-0.616-0.865-0.897-1.389c-1.025-1.969-1.147-4.282-0.338-6.35   c0.53-1.299,1.349-2.411,2.372-3.224c0.606-0.46,1.143-0.785,1.699-1.033l0.932-0.422l0.015-1.015   c0.065-3.904,3.292-7.079,7.192-7.079c1.209,0,2.398,0.306,3.441,0.885l1.359,0.74l0.923-1.548   c0.078-0.128,0.147-0.242,0.266-0.406c2.46-3.708,6.531-5.038,9.515-5.038c0.751,0,1.473,0.078,2.144,0.231   c2.957,0.697,5.297,2.29,6.959,4.739c1.512,2.189,2.094,4.987,1.776,8.549l0.002,1.52h3.459c3.143,0.008,5.83,2.042,6.687,5.062   c0.574,1.982,0.187,4.114-1.064,5.844c-1.259,1.719-3.179,2.745-5.271,2.819c-0.388,0.016-0.814,0.026-1.311,0.026L18.381,53.523z"></path><path fill="#000000" d="M18.559,14.59h0.125c4.869,0.052,8.815,3.385,9.843,7.932c2.346-1.433,4.901-2.077,7.039-2.191l0.28-0.311   l-1.298-0.145c-0.332-0.031-0.675-0.062-1.007-0.083c-1.858-0.135-3.001-0.291-3.364-1.412c-0.311-0.966-0.135-2.17,0.042-3.333   c0.083-0.53,0.166-1.08,0.197-1.599l0.083-1.142l-1.049,0.478c-1.464,0.685-2.502,1.007-3.291,1.007   c-1.059,0-2.201-0.571-2.668-4.869l-0.187-1.672l-1.028,1.329c-1.661,2.16-2.824,3.115-3.779,3.115   c-1.049,0-2.201-1.173-3.717-3.073l-0.872-1.101L13.586,8.89c-0.104,0.446-0.166,0.903-0.218,1.35   c-0.187,1.329-0.343,2.492-1.495,3.146c-0.363,0.208-0.748,0.312-1.152,0.312c-0.696,0-1.412-0.291-2.18-0.602   c-0.498-0.197-1.017-0.405-1.557-0.55L5.81,12.243l0.353,1.152c0.156,0.519,0.374,1.007,0.571,1.474   c0.602,1.391,0.945,2.284,0.291,3.354c-0.706,1.142-1.848,1.298-3.291,1.485c-0.457,0.052-0.934,0.114-1.402,0.218l-1.36,0.28   L2.03,21.11c0.343,0.28,0.696,0.54,1.028,0.799c1.339,0.986,2.16,1.661,2.18,2.938c0.021,1.236-0.862,1.931-1.879,2.741   c-0.426,0.332-0.862,0.675-1.256,1.08l-0.841,0.862l1.173,0.27c2.523,0.581,4.049,0.934,4.454,1.589   c0.426,0.675,0.052,2.201-0.613,4.973l-0.28,1.194l1.163-0.395c0.239-0.083,0.467-0.176,0.696-0.27   c0.353-0.363,0.716-0.696,1.111-1.007c0.395-0.301,0.768-0.55,1.173-0.799l0.27-0.166l0.052-0.312   c0.125-0.862,0.353-1.682,0.675-2.461l-0.052-0.052c-1.921-1.993-2.959-4.6-2.938-7.341C8.208,19.148,12.88,14.59,18.559,14.59z"></path><path fill="#000000" d="M13.496,30.756c-1.523-0.484-3.002-3.864-2.806-6.222c0.324-3.896,3.04-6.908,6.741-7.454   c3.654-0.538,6.804,1.609,7.564,3.4c-3.509-2.096-6.9-2.15-9.894,0.543C12.093,23.73,11.813,27.112,13.496,30.756z"></path></g></svg>