<svg xmlns="http://www.w3.org/2000/svg" xmlns:xlink="http://www.w3.org/1999/xlink" version="1.1" x="0px" y="0px" viewBox="0 0 64 64" enable-background="new 0 0 64 64" xml:space="preserve"><g><path fill="#000000" d="M33.454,42.359c0.147,0.427,0.223,0.544,0.222,0.66c-0.037,2.263,0.043,4.538-0.168,6.785   c-0.16,1.704-1.903,2.858-3.728,2.799c-1.731-0.056-3.307-1.454-3.536-3.113c-0.195-1.42,0.11-2.697,1.335-3.509   C29.458,44.738,31.412,43.609,33.454,42.359z"></path><path fill="#000000" d="M23.443,52.548c0.147,0.427,0.223,0.544,0.222,0.66c-0.037,2.263,0.043,4.538-0.168,6.785   c-0.16,1.704-1.903,2.858-3.728,2.799c-1.731-0.056-3.307-1.454-3.536-3.113c-0.195-1.42,0.11-2.697,1.335-3.509   C19.447,54.927,21.402,53.799,23.443,52.548z"></path><path fill="#000000" d="M15.182,45.306c0.147,0.427,0.223,0.544,0.222,0.66c-0.037,2.263,0.043,4.538-0.168,6.785   c-0.16,1.704-1.903,2.858-3.728,2.799c-1.731-0.056-3.307-1.454-3.536-3.113c-0.195-1.42,0.11-2.697,1.335-3.509   C11.185,47.684,13.14,46.556,15.182,45.306z"></path><path fill="#000000" d="M49.163,40.584c0.147,0.427,0.223,0.544,0.222,0.66c-0.037,2.263,0.043,4.538-0.168,6.785   c-0.16,1.704-1.903,2.858-3.728,2.799c-1.731-0.056-3.307-1.454-3.536-3.113c-0.195-1.42,0.11-2.697,1.335-3.509   C45.166,42.963,47.121,41.835,49.163,40.584z"></path><path fill="#000000" d="M41.767,52.548c0.147,0.427,0.223,0.544,0.222,0.66c-0.037,2.263,0.043,4.538-0.168,6.785   c-0.16,1.704-1.903,2.858-3.728,2.799c-1.731-0.056-3.307-1.454-3.536-3.113c-0.195-1.42,0.11-2.697,1.335-3.509   C37.771,54.927,39.726,53.799,41.767,52.548z"></path><path fill="#000000" d="M27.638,31.573c0.147,0.427,0.223,0.544,0.222,0.66c-0.037,2.263,0.043,4.538-0.168,6.785   c-0.16,1.704-1.903,2.858-3.728,2.799c-1.731-0.056-3.307-1.454-3.536-3.113c-0.195-1.42,0.11-2.697,1.335-3.509   C23.642,33.952,25.597,32.824,27.638,31.573z"></path><path fill="#000000" d="M44.188,31.573c0.147,0.427,0.223,0.544,0.222,0.66c-0.037,2.263,0.043,4.538-0.168,6.785   c-0.16,1.704-1.903,2.858-3.728,2.799c-1.731-0.056-3.307-1.454-3.536-3.113c-0.195-1.42,0.11-2.697,1.335-3.509   C40.191,33.952,42.146,32.824,44.188,31.573z"></path><path fill="#000000" d="M60.09,34.565c-1.965,2.682-4.966,4.289-8.219,4.405c-0.281,0-0.581,0.01-0.891,0.01l-0.039,0.01   c-0.058,0-0.116,0.01-0.184,0.01c-0.716,0-1.346-0.552-1.433-1.307c-0.106-0.823,0.455-1.568,1.249-1.675l0.232-0.029   c-0.01-0.01,0.649-0.039,0.939-0.048c2.343-0.087,4.482-1.239,5.896-3.156c1.404-1.946,1.839-4.337,1.191-6.564   c-0.958-3.379-3.959-5.654-7.483-5.654h-3.524v-1.481c0.348-3.882-0.29-6.931-1.975-9.361c-1.839-2.701-4.424-4.463-7.687-5.237   c-0.745-0.165-1.559-0.252-2.391-0.252c-3.301,0-7.803,1.471-10.542,5.595c-0.116,0.155-0.194,0.29-0.271,0.426l-0.891,1.491   l-1.288-0.707c-1.162-0.639-2.488-0.978-3.843-0.978c-4.356,0-7.967,3.543-8.045,7.909l-0.01,0.958l-0.881,0.397   c-0.62,0.281-1.21,0.639-1.878,1.133c-1.142,0.92-2.072,2.169-2.653,3.601c-0.91,2.323-0.774,4.908,0.368,7.096   c0.31,0.581,0.639,1.094,1.007,1.568c0.329,0.436,0.697,0.823,1.084,1.162c1.539,1.365,3.543,2.062,5.973,2.072l0.794,0.087   c0.726,0.165,1.229,0.871,1.133,1.646c-0.097,0.755-0.716,1.307-1.442,1.307c-0.058,0-0.126-0.01-0.184-0.019h-0.455   c-4.763-0.058-8.422-2.275-10.591-6.418c-1.559-2.962-1.742-6.467-0.503-9.613c0.784-1.946,2.043-3.63,3.63-4.889   c0.532-0.397,1.055-0.745,1.636-1.084h0.01c0.552-5.576,5.392-9.942,11.007-9.942c1.375,0,2.759,0.261,4.018,0.765l0.01-0.01   c3.427-4.85,8.868-6.583,12.808-6.583c1.017,0,2.052,0.106,3.069,0.339c4.018,0.939,7.222,3.108,9.526,6.457   c1.83,2.682,2.672,5.799,2.585,9.526h0.397c4.889,0.019,9.061,3.175,10.397,7.861C62.656,28.515,62.046,31.864,60.09,34.565z"></path></g></svg>