<svg xmlns="http://www.w3.org/2000/svg" xmlns:xlink="http://www.w3.org/1999/xlink" version="1.1" x="0px" y="0px" viewBox="0 0 64 64" enable-background="new 0 0 64 64" xml:space="preserve"><g><path fill="#000000" d="M60.084,39.178c-1.965,2.691-4.957,4.289-8.209,4.405c-0.6,0.019-1.22,0.019-2.052,0.019h-1.278l1.52-3.127   l1.685,0.077c2.333-0.087,4.482-1.229,5.896-3.156c1.404-1.936,1.839-4.327,1.191-6.554c-0.958-3.379-3.969-5.654-7.483-5.663   h-3.524v-1.481c0.349-3.882-0.3-6.931-1.975-9.361c-1.839-2.701-4.424-4.463-7.687-5.228c-0.755-0.174-1.559-0.261-2.391-0.261   c-3.301,0-7.803,1.472-10.542,5.605c-0.116,0.145-0.194,0.281-0.281,0.416l-0.891,1.491l-1.278-0.697   c-1.162-0.649-2.488-0.987-3.843-0.987c-4.366,0-7.967,3.553-8.045,7.919l-0.01,0.949l-0.881,0.397   c-0.62,0.281-1.22,0.639-1.878,1.142c-1.152,0.91-2.072,2.159-2.662,3.601c-0.9,2.314-0.775,4.898,0.368,7.096   c0.31,0.581,0.639,1.094,1.007,1.559c0.339,0.445,0.707,0.833,1.094,1.162c1.539,1.365,3.543,2.062,5.973,2.072h2.546   c-0.465,0.736-0.571,1.636-0.436,2.604c0.019,0.136,0.048,0.261,0.077,0.387v0.029h-2.352c-4.753-0.048-8.413-2.265-10.581-6.418   c-1.559-2.962-1.743-6.467-0.513-9.603c0.794-1.946,2.052-3.64,3.64-4.889c0.532-0.407,1.046-0.745,1.636-1.084v-0.01   c0.562-5.566,5.402-9.942,11.017-9.942c1.375,0,2.759,0.261,4.018,0.765l0.01-0.01c3.427-4.85,8.858-6.583,12.808-6.583   c1.016,0,2.052,0.116,3.069,0.339c4.018,0.939,7.222,3.117,9.516,6.467c1.83,2.672,2.682,5.789,2.594,9.516h0.397   c4.879,0.019,9.061,3.175,10.397,7.861C62.649,33.137,62.049,36.477,60.084,39.178z"></path><polygon fill="#000000" points="36.282,30.272 29.354,44.161 31.063,45.004 38.038,31.111  "></polygon><polygon fill="#000000" points="34.169,46.827 35.885,47.656 41.506,36.515 39.72,35.701  "></polygon><polygon fill="#000000" points="47.485,34.936 41.934,46.061 43.65,46.89 49.271,35.75  "></polygon><path fill="#000000" d="M40.913,48.492c-1.318,0-2.391,1.073-2.391,2.391c0,1.319,1.073,2.392,2.391,2.392   c1.319,0,2.392-1.073,2.392-2.392C43.304,49.565,42.231,48.492,40.913,48.492z"></path><circle fill="#000000" cx="28.253" cy="48.653" r="2.391"></circle><path fill="#000000" d="M25.925,35.556c0.147,0.427,0.223,0.544,0.222,0.66c-0.037,2.263,0.043,4.538-0.168,6.785   c-0.16,1.704-1.903,2.858-3.728,2.799c-1.731-0.056-3.307-1.454-3.536-3.113c-0.195-1.42,0.11-2.697,1.335-3.509   C21.928,37.935,23.883,36.807,25.925,35.556z"></path><path fill="#000000" d="M18.462,47.936c0.147,0.427,0.223,0.544,0.222,0.66c-0.037,2.263,0.043,4.538-0.168,6.785   c-0.16,1.704-1.903,2.858-3.728,2.799c-1.731-0.056-3.307-1.454-3.536-3.113c-0.195-1.42,0.11-2.697,1.335-3.509   C14.465,50.314,16.42,49.186,18.462,47.936z"></path><path fill="#000000" d="M18.139,24.056c0.147,0.427,0.223,0.544,0.222,0.66c-0.037,2.263,0.043,4.538-0.168,6.785   c-0.16,1.704-1.903,2.858-3.728,2.799c-1.731-0.056-3.307-1.454-3.536-3.113c-0.195-1.42,0.11-2.697,1.335-3.509   C14.143,26.435,16.097,25.307,18.139,24.056z"></path></g></svg>