<svg xmlns="http://www.w3.org/2000/svg" xmlns:xlink="http://www.w3.org/1999/xlink" version="1.1" x="0px" y="0px" viewBox="0 0 64 64" enable-background="new 0 0 64 64" xml:space="preserve"><g><path fill="#000000" d="M28.185,50.095h-0.006c-0.059-0.477-0.562-0.455-0.872-0.463c-0.333-0.008-0.666-0.015-1.03-0.023   l-0.725-0.037c0,0,1.236-1.149,1.325-1.227c0.141-0.124,0.022-0.015,0.151-0.138c0.247-0.235,0.266-0.458,0.055-0.665   c-0.155-0.153-0.363-0.18-0.571-0.074c-0.051,0.026-0.102,0.061-0.15,0.102c-0.312,0.267-1.48,1.331-1.896,1.68   c-0.065,0.055-0.139,0.104-0.222,0.146c-0.121,0.061-0.25,0.104-0.376,0.124c-0.028,0.004-0.506,0.008-0.946,0.01   c-0.136-0.449-0.359-0.861-0.65-1.214c0.341-0.337,0.774-0.764,0.802-0.784c0.101-0.071,0.218-0.13,0.342-0.17   c0.088-0.029,0.176-0.047,0.26-0.054c0.541-0.047,2.218-0.118,2.627-0.15c0.063-0.005,0.123-0.016,0.178-0.034   c0.222-0.072,0.35-0.239,0.352-0.457c0.003-0.296-0.168-0.44-0.509-0.432c-0.178,0.004-0.115-0.005-0.303,0.007   c-0.118,0.007-1.804,0.069-1.804,0.069l0.487-0.538c0.252-0.264,0.482-0.504,0.712-0.745c0.213-0.225,0.585-0.565,0.289-0.944   l0.004-0.004c-0.007-0.006-0.013-0.01-0.02-0.016c-0.006-0.007-0.01-0.013-0.016-0.02l-0.004,0.004   c-0.379-0.295-0.719,0.076-0.944,0.289c-0.241,0.23-0.481,0.46-0.745,0.712l-0.538,0.487c0,0,0.062-1.686,0.069-1.804   c0.012-0.188,0.005-0.026,0.009-0.204c0.009-0.341-0.136-0.512-0.432-0.509c-0.218,0.002-0.384,0.13-0.457,0.351   c-0.018,0.055-0.029,0.115-0.034,0.178c-0.032,0.409-0.105,1.987-0.153,2.528c-0.007,0.085-0.025,0.172-0.054,0.26   c-0.042,0.129-0.104,0.251-0.178,0.354c-0.02,0.027-0.494,0.507-0.836,0.852c-0.347-0.21-0.733-0.36-1.144-0.44   c0.002-0.491,0.007-1.219,0.014-1.257c0.021-0.122,0.063-0.246,0.122-0.362c0.042-0.083,0.091-0.158,0.146-0.222   c0.349-0.416,1.484-1.652,1.751-1.964c0.041-0.048,0.075-0.099,0.102-0.15c0.106-0.208,0.078-0.416-0.074-0.571   c-0.207-0.211-0.43-0.193-0.665,0.055c-0.123,0.129-0.085,0.078-0.209,0.219c-0.078,0.089-1.227,1.325-1.227,1.325l-0.037-0.725   c-0.008-0.365-0.015-0.697-0.023-1.03c-0.008-0.31,0.014-0.813-0.463-0.872V41.54c-0.009,0-0.017,0.002-0.025,0.003   c-0.009-0.001-0.017-0.002-0.025-0.003v0.006c-0.477,0.059-0.455,0.562-0.463,0.872c-0.008,0.333-0.015,0.666-0.023,1.03   l-0.037,0.725c0,0-1.149-1.236-1.227-1.325c-0.124-0.141-0.015-0.022-0.138-0.151c-0.235-0.247-0.458-0.266-0.665-0.055   c-0.153,0.155-0.18,0.363-0.074,0.571c0.026,0.051,0.061,0.102,0.102,0.15c0.267,0.312,1.331,1.48,1.68,1.896   c0.055,0.065,0.104,0.139,0.146,0.222c0.061,0.12,0.104,0.25,0.124,0.376c0.005,0.034,0.009,0.731,0.011,1.218   c-0.426,0.063-0.826,0.204-1.188,0.406c-0.341-0.344-0.791-0.801-0.812-0.83c-0.071-0.101-0.13-0.218-0.17-0.342   c-0.029-0.088-0.047-0.176-0.054-0.26c-0.047-0.541-0.118-2.218-0.15-2.627c-0.005-0.063-0.016-0.123-0.034-0.178   c-0.072-0.222-0.239-0.35-0.457-0.352c-0.296-0.003-0.44,0.168-0.432,0.509c0.004,0.178-0.005,0.115,0.007,0.303   c0.007,0.118,0.069,1.804,0.069,1.804l-0.538-0.487c-0.264-0.252-0.504-0.482-0.745-0.712c-0.225-0.213-0.565-0.585-0.944-0.289   l-0.004-0.004c-0.006,0.007-0.01,0.013-0.016,0.02c-0.007,0.006-0.013,0.01-0.02,0.016l0.004,0.004   c-0.295,0.379,0.076,0.719,0.289,0.944c0.23,0.241,0.46,0.481,0.712,0.745l0.487,0.538c0,0-1.686-0.062-1.804-0.069   c-0.188-0.012-0.026-0.005-0.204-0.009c-0.341-0.009-0.512,0.136-0.509,0.432c0.002,0.218,0.13,0.384,0.352,0.457   c0.055,0.018,0.115,0.029,0.178,0.034c0.409,0.032,1.987,0.105,2.528,0.153c0.085,0.007,0.172,0.025,0.26,0.054   c0.129,0.042,0.251,0.104,0.354,0.178c0.024,0.018,0.404,0.392,0.73,0.715c-0.319,0.363-0.565,0.791-0.713,1.263   c-0.414-0.003-0.833-0.006-0.861-0.011c-0.122-0.021-0.246-0.063-0.362-0.122c-0.083-0.042-0.158-0.091-0.222-0.146   c-0.416-0.349-1.652-1.484-1.964-1.751c-0.048-0.041-0.099-0.075-0.15-0.102c-0.208-0.106-0.416-0.078-0.571,0.074   c-0.211,0.207-0.193,0.43,0.055,0.665c0.129,0.123,0.078,0.085,0.219,0.209c0.089,0.078,1.325,1.227,1.325,1.227l-0.725,0.037   c-0.365,0.008-0.697,0.015-1.03,0.023c-0.31,0.008-0.813-0.014-0.872,0.463h-0.006c0,0.009,0.002,0.017,0.003,0.025   c-0.001,0.009-0.002,0.017-0.003,0.025h0.006c0.059,0.477,0.562,0.455,0.872,0.463c0.333,0.008,0.666,0.015,1.03,0.023l0.725,0.037   c0,0-1.236,1.149-1.325,1.227c-0.141,0.124-0.022,0.015-0.151,0.138c-0.247,0.235-0.266,0.458-0.055,0.665   c0.155,0.153,0.363,0.18,0.571,0.074c0.051-0.026,0.102-0.061,0.15-0.102c0.312-0.267,1.48-1.331,1.896-1.68   c0.065-0.055,0.139-0.104,0.222-0.146c0.121-0.061,0.25-0.104,0.376-0.124c0.022-0.004,0.338-0.006,0.69-0.009   c0.023,0.594,0.195,1.151,0.479,1.634c-0.198,0.195-0.358,0.351-0.375,0.363c-0.101,0.071-0.218,0.13-0.342,0.17   c-0.088,0.029-0.176,0.047-0.26,0.054c-0.541,0.047-2.218,0.118-2.627,0.15c-0.063,0.005-0.123,0.016-0.178,0.034   c-0.222,0.072-0.35,0.239-0.352,0.457c-0.003,0.296,0.168,0.44,0.509,0.432c0.178-0.004,0.115,0.005,0.303-0.007   c0.118-0.007,1.804-0.069,1.804-0.069l-0.487,0.538c-0.252,0.264-0.482,0.504-0.712,0.745c-0.213,0.225-0.585,0.565-0.289,0.944   l-0.004,0.004c0.007,0.006,0.013,0.01,0.02,0.016c0.006,0.007,0.01,0.013,0.016,0.02l0.004-0.004   c0.379,0.295,0.719-0.076,0.944-0.289c0.241-0.23,0.481-0.46,0.745-0.712l0.538-0.487c0,0-0.062,1.686-0.069,1.804   c-0.012,0.188-0.005,0.026-0.009,0.204c-0.009,0.341,0.136,0.512,0.432,0.509c0.218-0.002,0.384-0.13,0.457-0.351   c0.018-0.055,0.029-0.115,0.034-0.178c0.032-0.409,0.105-1.987,0.153-2.528c0.007-0.085,0.025-0.172,0.054-0.26   c0.042-0.129,0.104-0.251,0.178-0.354c0.01-0.013,0.127-0.134,0.284-0.294c0.474,0.398,1.053,0.673,1.69,0.775   c-0.002,0.2-0.005,0.346-0.007,0.363c-0.021,0.122-0.063,0.246-0.122,0.362c-0.042,0.083-0.091,0.158-0.146,0.222   c-0.349,0.416-1.484,1.652-1.751,1.964c-0.041,0.048-0.075,0.099-0.102,0.15c-0.106,0.208-0.078,0.416,0.074,0.571   c0.207,0.211,0.43,0.193,0.665-0.055c0.123-0.129,0.085-0.078,0.209-0.219c0.078-0.089,1.227-1.325,1.227-1.325l0.037,0.725   c0.008,0.365,0.015,0.697,0.023,1.03c0.008,0.31-0.014,0.813,0.463,0.872v0.006c0.009,0,0.017-0.002,0.025-0.003   c0.009,0.001,0.017,0.002,0.025,0.003V58.66c0.477-0.059,0.455-0.562,0.463-0.872c0.008-0.333,0.015-0.666,0.023-1.03l0.037-0.725   c0,0,1.149,1.236,1.227,1.325c0.124,0.141,0.015,0.022,0.138,0.151c0.235,0.247,0.458,0.266,0.665,0.055   c0.153-0.155,0.18-0.363,0.074-0.571c-0.026-0.051-0.061-0.102-0.102-0.15c-0.267-0.312-1.331-1.48-1.68-1.896   c-0.055-0.065-0.104-0.139-0.146-0.222c-0.061-0.121-0.104-0.25-0.124-0.376c-0.002-0.015-0.004-0.161-0.006-0.362   c0.622-0.114,1.187-0.393,1.649-0.79c0.187,0.19,0.334,0.341,0.345,0.357c0.071,0.101,0.13,0.218,0.17,0.342   c0.029,0.088,0.047,0.176,0.054,0.26c0.047,0.541,0.118,2.218,0.15,2.627c0.005,0.063,0.016,0.123,0.034,0.178   c0.072,0.222,0.239,0.35,0.457,0.351c0.296,0.003,0.44-0.168,0.432-0.509c-0.004-0.178,0.005-0.115-0.007-0.303   c-0.007-0.118-0.069-1.804-0.069-1.804l0.538,0.487c0.264,0.252,0.504,0.482,0.745,0.712c0.225,0.213,0.565,0.585,0.944,0.289   l0.004,0.004c0.006-0.007,0.01-0.013,0.016-0.02c0.007-0.006,0.013-0.01,0.02-0.016l-0.004-0.004   c0.295-0.379-0.076-0.719-0.289-0.944c-0.23-0.241-0.46-0.481-0.712-0.745l-0.487-0.538c0,0,1.686,0.062,1.804,0.069   c0.188,0.012,0.026,0.005,0.204,0.009c0.341,0.009,0.512-0.136,0.509-0.432c-0.002-0.218-0.13-0.384-0.352-0.457   c-0.055-0.018-0.115-0.029-0.178-0.034c-0.409-0.032-1.987-0.105-2.528-0.153c-0.085-0.007-0.172-0.025-0.26-0.054   c-0.129-0.042-0.251-0.104-0.354-0.178c-0.017-0.012-0.205-0.196-0.427-0.416c0.266-0.465,0.43-0.996,0.457-1.562   c0.399,0.003,0.787,0.006,0.814,0.011c0.122,0.021,0.246,0.063,0.362,0.122c0.083,0.042,0.158,0.091,0.222,0.146   c0.416,0.349,1.652,1.484,1.964,1.751c0.048,0.041,0.099,0.075,0.15,0.102c0.208,0.106,0.416,0.078,0.571-0.074   c0.211-0.207,0.193-0.43-0.055-0.665c-0.129-0.123-0.078-0.085-0.219-0.209c-0.089-0.078-1.325-1.227-1.325-1.227l0.725-0.037   c0.365-0.008,0.697-0.015,1.03-0.023c0.31-0.008,0.813,0.014,0.872-0.463h0.006c0-0.009-0.002-0.017-0.003-0.025   C28.183,50.112,28.184,50.104,28.185,50.095z M19.567,52.511c-1.086,0-1.97-0.884-1.97-1.97c0-1.087,0.884-1.97,1.97-1.97   s1.97,0.884,1.97,1.97C21.538,51.627,20.654,52.511,19.567,52.511z"></path><path fill="#000000" d="M53.237,52.662h-0.006c-0.059-0.477-0.562-0.455-0.872-0.463c-0.333-0.008-0.666-0.015-1.03-0.023   l-0.725-0.037c0,0,1.236-1.149,1.325-1.227c0.141-0.124,0.022-0.015,0.151-0.138c0.247-0.235,0.266-0.458,0.055-0.665   c-0.155-0.153-0.363-0.18-0.571-0.074c-0.051,0.026-0.102,0.061-0.15,0.102c-0.312,0.267-1.48,1.331-1.896,1.68   c-0.065,0.055-0.139,0.104-0.222,0.146c-0.121,0.061-0.25,0.104-0.376,0.124c-0.028,0.004-0.506,0.008-0.946,0.01   c-0.136-0.449-0.359-0.861-0.65-1.214c0.341-0.337,0.774-0.764,0.802-0.784c0.101-0.071,0.218-0.13,0.342-0.17   c0.088-0.029,0.176-0.047,0.26-0.054c0.541-0.047,2.218-0.118,2.627-0.15c0.063-0.005,0.123-0.016,0.178-0.034   c0.222-0.072,0.35-0.239,0.352-0.457c0.003-0.296-0.168-0.44-0.509-0.432c-0.178,0.004-0.115-0.005-0.303,0.007   c-0.118,0.007-1.804,0.069-1.804,0.069l0.487-0.538c0.252-0.264,0.482-0.504,0.712-0.745c0.213-0.225,0.585-0.565,0.289-0.944   l0.004-0.004c-0.007-0.006-0.013-0.01-0.02-0.016c-0.006-0.007-0.01-0.013-0.016-0.02l-0.004,0.004   c-0.379-0.295-0.719,0.076-0.944,0.289c-0.241,0.23-0.481,0.46-0.745,0.712l-0.538,0.487c0,0,0.062-1.686,0.069-1.804   c0.012-0.188,0.005-0.026,0.009-0.204c0.009-0.341-0.136-0.512-0.432-0.509c-0.218,0.002-0.384,0.13-0.457,0.351   c-0.018,0.055-0.029,0.115-0.034,0.178c-0.032,0.409-0.105,1.987-0.153,2.528c-0.007,0.085-0.025,0.172-0.054,0.26   c-0.042,0.129-0.104,0.251-0.178,0.354c-0.02,0.027-0.494,0.507-0.836,0.852c-0.347-0.21-0.733-0.36-1.144-0.44   c0.002-0.491,0.007-1.219,0.014-1.257c0.021-0.122,0.063-0.246,0.122-0.362c0.042-0.083,0.091-0.158,0.146-0.222   c0.349-0.416,1.484-1.652,1.751-1.964c0.041-0.048,0.075-0.099,0.102-0.15c0.106-0.208,0.078-0.416-0.074-0.571   c-0.207-0.211-0.43-0.193-0.665,0.055c-0.123,0.129-0.085,0.078-0.209,0.219c-0.078,0.089-1.227,1.325-1.227,1.325l-0.037-0.725   c-0.008-0.365-0.015-0.697-0.023-1.03c-0.008-0.31,0.014-0.813-0.463-0.872v-0.006c-0.009,0-0.017,0.002-0.025,0.003   c-0.009-0.001-0.017-0.003-0.025-0.003v0.006c-0.477,0.059-0.455,0.562-0.463,0.872c-0.008,0.333-0.015,0.666-0.023,1.03   l-0.037,0.725c0,0-1.149-1.236-1.227-1.325c-0.124-0.141-0.015-0.022-0.138-0.151c-0.235-0.247-0.458-0.266-0.665-0.055   c-0.153,0.155-0.18,0.363-0.074,0.571c0.026,0.051,0.061,0.102,0.102,0.15c0.267,0.312,1.331,1.48,1.68,1.896   c0.055,0.065,0.104,0.139,0.146,0.222c0.061,0.121,0.104,0.25,0.124,0.376c0.005,0.034,0.009,0.731,0.011,1.218   c-0.426,0.063-0.826,0.204-1.188,0.406c-0.341-0.344-0.791-0.801-0.812-0.83c-0.071-0.101-0.13-0.218-0.17-0.342   c-0.029-0.088-0.047-0.176-0.054-0.26c-0.047-0.541-0.118-2.218-0.15-2.627c-0.005-0.063-0.016-0.123-0.034-0.178   c-0.072-0.222-0.239-0.35-0.457-0.352c-0.296-0.003-0.44,0.168-0.432,0.509c0.004,0.178-0.005,0.115,0.007,0.303   c0.007,0.118,0.069,1.804,0.069,1.804l-0.538-0.487c-0.264-0.252-0.504-0.482-0.745-0.712c-0.225-0.213-0.565-0.585-0.944-0.289   l-0.004-0.004c-0.006,0.007-0.01,0.013-0.016,0.02c-0.007,0.006-0.013,0.01-0.02,0.016l0.004,0.004   c-0.295,0.379,0.076,0.719,0.289,0.944c0.23,0.241,0.46,0.481,0.712,0.745l0.487,0.538c0,0-1.686-0.062-1.804-0.069   c-0.188-0.012-0.026-0.005-0.204-0.009c-0.341-0.009-0.512,0.136-0.509,0.432c0.002,0.218,0.13,0.384,0.352,0.457   c0.055,0.018,0.115,0.029,0.178,0.034c0.409,0.032,1.987,0.105,2.528,0.153c0.085,0.007,0.172,0.025,0.26,0.054   c0.129,0.042,0.251,0.104,0.354,0.178c0.024,0.018,0.404,0.392,0.73,0.715c-0.319,0.363-0.565,0.791-0.713,1.263   c-0.414-0.003-0.833-0.006-0.861-0.011c-0.122-0.021-0.246-0.063-0.362-0.122c-0.083-0.042-0.158-0.091-0.222-0.146   c-0.416-0.349-1.652-1.484-1.964-1.751c-0.048-0.041-0.099-0.075-0.15-0.102c-0.208-0.106-0.416-0.078-0.571,0.074   c-0.211,0.207-0.193,0.43,0.055,0.665c0.129,0.123,0.078,0.085,0.219,0.209c0.089,0.078,1.325,1.227,1.325,1.227l-0.725,0.037   c-0.365,0.008-0.697,0.015-1.03,0.023c-0.31,0.008-0.813-0.014-0.872,0.463h-0.006c0,0.009,0.002,0.017,0.003,0.025   c-0.001,0.009-0.002,0.017-0.003,0.025h0.006c0.059,0.477,0.562,0.455,0.872,0.463c0.333,0.008,0.666,0.015,1.03,0.023l0.725,0.037   c0,0-1.236,1.149-1.325,1.227c-0.141,0.124-0.022,0.015-0.151,0.138c-0.247,0.235-0.266,0.458-0.055,0.665   c0.155,0.153,0.363,0.18,0.571,0.074c0.051-0.026,0.102-0.061,0.15-0.102c0.312-0.267,1.48-1.331,1.896-1.68   c0.065-0.055,0.139-0.104,0.222-0.146c0.121-0.061,0.25-0.104,0.376-0.124c0.022-0.004,0.338-0.006,0.69-0.009   c0.023,0.594,0.195,1.151,0.479,1.634c-0.198,0.195-0.358,0.351-0.375,0.363c-0.101,0.071-0.218,0.13-0.342,0.17   c-0.088,0.029-0.176,0.047-0.26,0.054c-0.541,0.047-2.218,0.118-2.627,0.15c-0.063,0.005-0.123,0.016-0.178,0.034   c-0.222,0.072-0.35,0.239-0.352,0.457c-0.003,0.296,0.168,0.44,0.509,0.432c0.178-0.004,0.115,0.005,0.303-0.007   c0.118-0.007,1.804-0.069,1.804-0.069l-0.487,0.538c-0.252,0.264-0.482,0.504-0.712,0.745c-0.213,0.225-0.585,0.565-0.289,0.944   l-0.004,0.004c0.007,0.006,0.013,0.01,0.02,0.016c0.006,0.007,0.01,0.013,0.016,0.02l0.004-0.004   c0.379,0.295,0.719-0.076,0.944-0.289c0.241-0.23,0.481-0.46,0.745-0.712l0.538-0.487c0,0-0.062,1.686-0.069,1.804   c-0.012,0.188-0.005,0.026-0.009,0.204c-0.009,0.341,0.136,0.512,0.432,0.509c0.218-0.002,0.384-0.13,0.457-0.351   c0.018-0.055,0.029-0.115,0.034-0.178c0.032-0.409,0.105-1.987,0.153-2.528c0.007-0.085,0.025-0.172,0.054-0.26   c0.042-0.129,0.104-0.251,0.178-0.354c0.01-0.013,0.127-0.134,0.284-0.294c0.474,0.398,1.053,0.673,1.69,0.775   c-0.002,0.2-0.005,0.346-0.007,0.363c-0.021,0.122-0.063,0.246-0.122,0.362c-0.042,0.083-0.091,0.158-0.146,0.222   c-0.349,0.416-1.484,1.652-1.751,1.964c-0.041,0.048-0.075,0.099-0.102,0.15c-0.106,0.208-0.078,0.416,0.074,0.571   c0.207,0.211,0.43,0.193,0.665-0.055c0.123-0.129,0.085-0.078,0.209-0.219c0.078-0.089,1.227-1.325,1.227-1.325l0.037,0.725   c0.008,0.365,0.015,0.697,0.023,1.03c0.008,0.31-0.014,0.813,0.463,0.872v0.006c0.009,0,0.017-0.002,0.025-0.003   c0.009,0.001,0.017,0.003,0.025,0.003v-0.006c0.477-0.059,0.455-0.562,0.463-0.872c0.008-0.333,0.015-0.666,0.023-1.03l0.037-0.725   c0,0,1.149,1.236,1.227,1.325c0.124,0.141,0.015,0.022,0.138,0.151c0.235,0.247,0.458,0.266,0.665,0.055   c0.153-0.155,0.18-0.363,0.074-0.571c-0.026-0.051-0.061-0.102-0.102-0.15c-0.267-0.312-1.331-1.48-1.68-1.896   c-0.055-0.065-0.104-0.139-0.146-0.222c-0.061-0.121-0.104-0.25-0.124-0.376c-0.002-0.015-0.004-0.161-0.006-0.362   c0.622-0.114,1.187-0.393,1.649-0.79c0.187,0.19,0.334,0.341,0.345,0.357c0.071,0.101,0.13,0.218,0.17,0.342   c0.029,0.088,0.047,0.176,0.054,0.26c0.047,0.541,0.118,2.218,0.15,2.627c0.005,0.063,0.016,0.123,0.034,0.178   c0.072,0.222,0.239,0.35,0.457,0.351c0.296,0.003,0.44-0.168,0.432-0.509c-0.004-0.178,0.005-0.115-0.007-0.303   c-0.007-0.118-0.069-1.804-0.069-1.804l0.538,0.487c0.264,0.252,0.504,0.482,0.745,0.712c0.225,0.213,0.565,0.585,0.944,0.289   l0.004,0.004c0.006-0.007,0.01-0.013,0.016-0.02c0.007-0.006,0.013-0.01,0.02-0.016l-0.004-0.004   c0.295-0.379-0.076-0.719-0.289-0.944c-0.23-0.241-0.46-0.481-0.712-0.745l-0.487-0.538c0,0,1.686,0.062,1.804,0.069   c0.188,0.012,0.026,0.005,0.204,0.009c0.341,0.009,0.512-0.136,0.509-0.432c-0.002-0.218-0.13-0.384-0.352-0.457   c-0.055-0.018-0.115-0.029-0.178-0.034c-0.409-0.032-1.987-0.105-2.528-0.153c-0.085-0.007-0.172-0.025-0.26-0.054   c-0.129-0.042-0.251-0.104-0.354-0.178c-0.017-0.012-0.205-0.196-0.427-0.416c0.266-0.465,0.43-0.996,0.457-1.562   c0.399,0.003,0.787,0.006,0.814,0.011c0.122,0.021,0.246,0.063,0.362,0.122c0.083,0.042,0.158,0.091,0.222,0.146   c0.416,0.349,1.652,1.484,1.964,1.751c0.048,0.041,0.099,0.075,0.15,0.102c0.208,0.106,0.416,0.078,0.571-0.074   c0.211-0.207,0.193-0.43-0.055-0.665c-0.129-0.123-0.078-0.085-0.219-0.209c-0.089-0.078-1.325-1.227-1.325-1.227l0.725-0.037   c0.365-0.008,0.697-0.015,1.03-0.023c0.31-0.008,0.813,0.014,0.872-0.463h0.006c0-0.009-0.002-0.017-0.003-0.025   C53.235,52.679,53.236,52.671,53.237,52.662z M44.619,55.078c-1.086,0-1.97-0.884-1.97-1.97c0-1.087,0.884-1.97,1.97-1.97   c1.086,0,1.97,0.884,1.97,1.97C46.59,54.194,45.706,55.078,44.619,55.078z"></path><path fill="#000000" d="M42.719,31.733h-0.006c-0.059-0.477-0.562-0.455-0.872-0.463c-0.333-0.008-0.666-0.015-1.03-0.023   l-0.725-0.037c0,0,1.236-1.149,1.325-1.227c0.141-0.124,0.022-0.015,0.151-0.138c0.247-0.235,0.266-0.458,0.055-0.665   c-0.155-0.153-0.363-0.18-0.571-0.074c-0.051,0.026-0.102,0.061-0.15,0.102c-0.312,0.267-1.48,1.331-1.896,1.68   c-0.065,0.055-0.139,0.104-0.222,0.146c-0.121,0.061-0.25,0.104-0.376,0.124c-0.028,0.004-0.506,0.008-0.946,0.01   c-0.136-0.449-0.359-0.861-0.65-1.214c0.341-0.337,0.774-0.764,0.802-0.784c0.101-0.071,0.218-0.13,0.342-0.17   c0.088-0.029,0.176-0.047,0.26-0.054c0.541-0.047,2.218-0.118,2.627-0.15c0.063-0.005,0.123-0.016,0.178-0.034   c0.222-0.072,0.35-0.239,0.352-0.457c0.003-0.296-0.168-0.44-0.509-0.432c-0.178,0.004-0.115-0.005-0.303,0.007   c-0.118,0.007-1.804,0.069-1.804,0.069l0.487-0.538c0.252-0.264,0.482-0.504,0.712-0.745c0.213-0.225,0.585-0.565,0.289-0.944   l0.004-0.004c-0.007-0.006-0.013-0.01-0.02-0.016c-0.006-0.007-0.01-0.013-0.016-0.02l-0.004,0.004   c-0.379-0.295-0.719,0.076-0.944,0.289c-0.241,0.23-0.481,0.46-0.745,0.712l-0.538,0.487c0,0,0.062-1.686,0.069-1.804   c0.012-0.188,0.005-0.026,0.009-0.204c0.009-0.341-0.136-0.512-0.432-0.509c-0.218,0.002-0.384,0.13-0.457,0.351   c-0.018,0.055-0.029,0.115-0.034,0.178c-0.032,0.409-0.105,1.987-0.153,2.528c-0.007,0.085-0.025,0.172-0.054,0.26   c-0.042,0.129-0.104,0.251-0.178,0.354c-0.02,0.027-0.494,0.507-0.836,0.852c-0.347-0.21-0.733-0.36-1.144-0.44   c0.002-0.491,0.007-1.219,0.014-1.257c0.021-0.122,0.063-0.246,0.122-0.362c0.042-0.083,0.091-0.158,0.146-0.222   c0.349-0.416,1.484-1.652,1.751-1.964c0.041-0.048,0.075-0.099,0.102-0.15c0.106-0.208,0.078-0.416-0.074-0.571   c-0.207-0.211-0.43-0.193-0.665,0.055c-0.123,0.129-0.085,0.078-0.209,0.219c-0.078,0.089-1.227,1.325-1.227,1.325l-0.037-0.725   c-0.008-0.365-0.015-0.697-0.023-1.03c-0.008-0.31,0.014-0.813-0.463-0.872v-0.006c-0.009,0-0.017,0.002-0.025,0.003   c-0.009-0.001-0.017-0.003-0.025-0.003v0.006c-0.477,0.059-0.455,0.562-0.463,0.872c-0.008,0.333-0.015,0.666-0.023,1.03   l-0.037,0.725c0,0-1.149-1.236-1.227-1.325c-0.124-0.141-0.015-0.022-0.138-0.151c-0.235-0.247-0.458-0.266-0.665-0.055   c-0.153,0.155-0.18,0.363-0.074,0.571c0.026,0.051,0.061,0.102,0.102,0.15c0.267,0.312,1.331,1.48,1.68,1.896   c0.055,0.065,0.104,0.139,0.146,0.222c0.061,0.121,0.104,0.25,0.124,0.376c0.005,0.034,0.009,0.731,0.011,1.218   c-0.426,0.063-0.826,0.204-1.188,0.406c-0.341-0.344-0.791-0.801-0.812-0.83c-0.071-0.101-0.13-0.218-0.17-0.342   c-0.029-0.088-0.047-0.176-0.054-0.26c-0.047-0.541-0.118-2.218-0.15-2.627c-0.005-0.063-0.016-0.123-0.034-0.178   c-0.072-0.222-0.239-0.35-0.457-0.352c-0.296-0.003-0.44,0.168-0.432,0.509c0.004,0.178-0.005,0.115,0.007,0.303   c0.007,0.118,0.069,1.804,0.069,1.804l-0.538-0.487c-0.264-0.252-0.504-0.482-0.745-0.712c-0.225-0.213-0.565-0.585-0.944-0.289   l-0.004-0.004c-0.006,0.007-0.01,0.013-0.016,0.02c-0.007,0.006-0.013,0.01-0.02,0.016l0.004,0.004   c-0.295,0.379,0.076,0.719,0.289,0.944c0.23,0.241,0.46,0.481,0.712,0.745l0.487,0.538c0,0-1.686-0.062-1.804-0.069   c-0.188-0.012-0.026-0.005-0.204-0.009c-0.341-0.009-0.512,0.136-0.509,0.432c0.002,0.218,0.13,0.384,0.352,0.457   c0.055,0.018,0.115,0.029,0.178,0.034c0.409,0.032,1.987,0.105,2.528,0.153c0.085,0.007,0.172,0.025,0.26,0.054   c0.129,0.042,0.251,0.104,0.354,0.178c0.024,0.018,0.404,0.392,0.73,0.715c-0.319,0.363-0.565,0.791-0.713,1.263   c-0.414-0.003-0.833-0.006-0.861-0.011c-0.122-0.021-0.246-0.063-0.362-0.122c-0.083-0.042-0.158-0.091-0.222-0.146   c-0.416-0.349-1.652-1.484-1.964-1.751c-0.048-0.041-0.099-0.075-0.15-0.102c-0.208-0.106-0.416-0.078-0.571,0.074   c-0.211,0.207-0.193,0.43,0.055,0.665c0.129,0.123,0.078,0.085,0.219,0.209c0.089,0.078,1.325,1.227,1.325,1.227l-0.725,0.037   c-0.365,0.008-0.697,0.015-1.03,0.023c-0.31,0.008-0.813-0.014-0.872,0.463h-0.006c0,0.009,0.002,0.017,0.003,0.025   c-0.001,0.009-0.003,0.017-0.003,0.025h0.006c0.059,0.477,0.562,0.455,0.872,0.463c0.333,0.008,0.666,0.015,1.03,0.023l0.725,0.037   c0,0-1.236,1.149-1.325,1.227c-0.141,0.124-0.022,0.015-0.151,0.138c-0.247,0.235-0.266,0.458-0.055,0.665   c0.155,0.153,0.363,0.18,0.571,0.074c0.051-0.026,0.102-0.061,0.15-0.102c0.312-0.267,1.48-1.331,1.896-1.68   c0.065-0.055,0.139-0.104,0.222-0.146c0.121-0.061,0.25-0.104,0.376-0.124c0.022-0.004,0.338-0.006,0.69-0.009   c0.023,0.594,0.195,1.151,0.479,1.634c-0.198,0.195-0.358,0.351-0.375,0.363c-0.101,0.071-0.218,0.13-0.342,0.17   c-0.088,0.029-0.176,0.047-0.26,0.054c-0.541,0.047-2.218,0.118-2.627,0.15c-0.063,0.005-0.123,0.016-0.178,0.034   c-0.222,0.072-0.35,0.239-0.352,0.457c-0.003,0.296,0.168,0.44,0.509,0.432c0.178-0.004,0.115,0.005,0.303-0.007   c0.118-0.007,1.804-0.069,1.804-0.069l-0.487,0.538c-0.252,0.264-0.482,0.504-0.712,0.745c-0.213,0.225-0.585,0.565-0.289,0.944   l-0.004,0.004c0.007,0.006,0.013,0.01,0.02,0.016c0.006,0.007,0.01,0.013,0.016,0.02l0.004-0.004   c0.379,0.295,0.719-0.076,0.944-0.289c0.241-0.23,0.481-0.46,0.745-0.712l0.538-0.487c0,0-0.062,1.686-0.069,1.804   c-0.012,0.188-0.005,0.026-0.009,0.204c-0.009,0.341,0.136,0.512,0.432,0.509c0.218-0.002,0.384-0.13,0.457-0.351   c0.018-0.055,0.029-0.115,0.034-0.178c0.032-0.409,0.105-1.987,0.153-2.528c0.007-0.085,0.025-0.172,0.054-0.26   c0.042-0.129,0.104-0.251,0.178-0.354c0.01-0.013,0.127-0.134,0.284-0.294c0.474,0.398,1.053,0.673,1.69,0.775   c-0.002,0.2-0.005,0.346-0.007,0.363c-0.021,0.122-0.063,0.246-0.122,0.362c-0.042,0.083-0.091,0.158-0.146,0.222   c-0.349,0.416-1.484,1.652-1.751,1.964c-0.041,0.048-0.075,0.099-0.102,0.15c-0.106,0.208-0.078,0.416,0.074,0.571   c0.207,0.211,0.43,0.193,0.665-0.055c0.123-0.129,0.085-0.078,0.209-0.219c0.078-0.089,1.227-1.325,1.227-1.325l0.037,0.725   c0.008,0.365,0.015,0.697,0.023,1.03c0.008,0.31-0.014,0.813,0.463,0.872v0.006c0.009,0,0.017-0.002,0.025-0.003   c0.009,0.001,0.017,0.002,0.025,0.003v-0.006c0.477-0.059,0.455-0.562,0.463-0.872c0.008-0.333,0.015-0.666,0.023-1.03l0.037-0.725   c0,0,1.149,1.236,1.227,1.325c0.124,0.141,0.015,0.022,0.138,0.151c0.235,0.247,0.458,0.266,0.665,0.055   c0.153-0.155,0.18-0.363,0.074-0.571c-0.026-0.051-0.061-0.102-0.102-0.15c-0.267-0.312-1.331-1.48-1.68-1.896   c-0.055-0.065-0.104-0.139-0.146-0.222c-0.061-0.121-0.104-0.25-0.124-0.376c-0.002-0.015-0.004-0.161-0.006-0.362   c0.622-0.114,1.187-0.393,1.649-0.79c0.187,0.19,0.334,0.341,0.345,0.357c0.071,0.101,0.13,0.218,0.17,0.342   c0.029,0.088,0.047,0.176,0.054,0.26c0.047,0.541,0.118,2.218,0.15,2.627c0.005,0.063,0.016,0.123,0.034,0.178   c0.072,0.222,0.239,0.35,0.457,0.351c0.296,0.003,0.44-0.168,0.432-0.509c-0.004-0.178,0.005-0.115-0.007-0.303   c-0.007-0.118-0.069-1.804-0.069-1.804l0.538,0.487c0.264,0.252,0.504,0.482,0.745,0.712c0.225,0.213,0.565,0.585,0.944,0.289   l0.004,0.004c0.006-0.007,0.01-0.013,0.016-0.02c0.007-0.006,0.013-0.01,0.02-0.016l-0.004-0.004   c0.295-0.379-0.076-0.719-0.289-0.944c-0.23-0.241-0.46-0.481-0.712-0.745l-0.487-0.538c0,0,1.686,0.062,1.804,0.069   c0.188,0.012,0.026,0.005,0.204,0.009c0.341,0.009,0.512-0.136,0.509-0.432c-0.002-0.218-0.13-0.384-0.352-0.457   c-0.055-0.018-0.115-0.029-0.178-0.034c-0.409-0.032-1.987-0.105-2.528-0.153c-0.085-0.007-0.172-0.025-0.26-0.054   c-0.129-0.042-0.251-0.104-0.354-0.178c-0.017-0.012-0.205-0.196-0.427-0.416c0.266-0.465,0.43-0.996,0.457-1.562   c0.399,0.003,0.787,0.006,0.814,0.011c0.122,0.021,0.246,0.063,0.362,0.122c0.083,0.042,0.158,0.091,0.222,0.146   c0.416,0.349,1.652,1.484,1.964,1.751c0.048,0.041,0.099,0.075,0.15,0.102c0.208,0.106,0.416,0.078,0.571-0.074   c0.211-0.207,0.193-0.43-0.055-0.665c-0.129-0.123-0.078-0.085-0.219-0.209c-0.089-0.078-1.325-1.227-1.325-1.227l0.725-0.037   c0.365-0.008,0.697-0.015,1.03-0.023c0.31-0.008,0.813,0.014,0.872-0.463h0.006c0-0.009-0.002-0.017-0.003-0.025   C42.717,31.75,42.719,31.742,42.719,31.733z M34.102,34.149c-1.086,0-1.97-0.884-1.97-1.97c0-1.087,0.884-1.97,1.97-1.97   c1.086,0,1.97,0.884,1.97,1.97C36.072,33.265,35.188,34.149,34.102,34.149z"></path><path fill="#000000" d="M60.09,36.127c-1.965,2.682-4.966,4.289-8.219,4.405c-0.281,0-0.581,0.01-0.891,0.01l-0.039,0.01   c-0.058,0-0.116,0.01-0.184,0.01c-0.716,0-1.346-0.552-1.433-1.307c-0.106-0.823,0.455-1.568,1.249-1.675l0.232-0.029   c-0.01-0.01,0.649-0.039,0.939-0.048c2.343-0.087,4.482-1.239,5.896-3.156c1.404-1.946,1.839-4.337,1.191-6.564   c-0.958-3.379-3.959-5.654-7.483-5.654h-3.524v-1.481c0.348-3.882-0.29-6.931-1.975-9.361c-1.839-2.701-4.424-4.463-7.687-5.237   c-0.745-0.165-1.559-0.252-2.391-0.252c-3.301,0-7.803,1.471-10.542,5.595c-0.116,0.155-0.194,0.29-0.271,0.426l-0.891,1.491   l-1.288-0.707c-1.162-0.639-2.488-0.978-3.843-0.978c-4.356,0-7.967,3.543-8.045,7.909l-0.01,0.958l-0.881,0.397   c-0.62,0.281-1.21,0.639-1.878,1.133c-1.142,0.92-2.072,2.169-2.653,3.601c-0.91,2.323-0.774,4.908,0.368,7.096   c0.31,0.581,0.639,1.094,1.007,1.568c0.329,0.436,0.697,0.823,1.084,1.162c1.539,1.365,3.543,2.062,5.973,2.072l0.794,0.087   c0.726,0.165,1.229,0.871,1.133,1.646c-0.097,0.755-0.716,1.307-1.442,1.307c-0.058,0-0.126-0.01-0.184-0.019h-0.455   c-4.763-0.058-8.422-2.275-10.591-6.418c-1.559-2.962-1.742-6.467-0.503-9.613c0.784-1.946,2.043-3.63,3.63-4.889   c0.532-0.397,1.055-0.745,1.636-1.084h0.01c0.552-5.576,5.392-9.942,11.007-9.942c1.375,0,2.759,0.261,4.018,0.765l0.01-0.01   c3.427-4.85,8.868-6.583,12.808-6.583c1.017,0,2.052,0.106,3.069,0.339c4.018,0.939,7.222,3.108,9.526,6.457   c1.83,2.682,2.672,5.799,2.585,9.526h0.397c4.889,0.019,9.061,3.175,10.397,7.861C62.656,30.077,62.046,33.427,60.09,36.127z"></path></g></svg>