<svg xmlns="http://www.w3.org/2000/svg" xmlns:xlink="http://www.w3.org/1999/xlink" version="1.1" x="0px" y="0px" viewBox="0 0 64 64" enable-background="new 0 0 64 64" xml:space="preserve"><g><path fill="#000000" d="M60.67,36.811c-1.969-2.363-4.556-3.453-7.588-3.453h-2.639c0.63-1.024,1.024-2.193,1.142-3.453   c0.328-3.518-2.705-7.195-6.486-7.864c-2.403-0.433-6.026,1.483-7.024,3.702c-0.433,0.958-0.131,2.009,0.696,2.468   c0.867,0.486,1.891,0.276,2.442-0.696c1.09-1.877,2.678-2.101,4.241-1.707c1.825,0.459,2.731,2.232,2.429,4.542   c-0.249,1.785-1.575,2.967-3.4,2.98H5.162c-0.355,0-0.709-0.026-1.063,0.013c-0.67,0.092-1.221,0.446-1.536,0.945   c-0.171,0.276-0.263,0.604-0.249,0.932c0.013,0.945,0.801,1.746,1.851,1.799c1.024,0.052,2.048,0.013,3.072,0.013h6.538   c0.052,0.013,0.118,0.013,0.184,0.026H43.76c3.466,0,6.945-0.039,10.411,0.013c2.376,0.039,4.201,1.497,4.385,3.361   c0.197,2.14-1.103,3.768-3.61,4.175c-2.258,0.368-4.411,0.144-5.974-1.89c-0.722-0.932-1.785-1.024-2.613-0.394   c-0.775,0.604-0.893,1.746-0.236,2.652c0.184,0.249,0.394,0.499,0.617,0.709c3.899,3.86,10.516,3.492,13.969-0.761   C62.731,42.43,62.744,39.293,60.67,36.811z"></path><path fill="#000000" d="M15.574,46.174c-5.798,0.001-5.147,0.001-10.945,0c-0.355,0-0.714,0.023-1.064-0.019   c-1.04-0.126-1.811-0.947-1.789-1.871c0.022-0.941,0.801-1.748,1.852-1.804c1.023-0.054,2.05-0.012,3.076-0.012   c10.887,0,15.324-0.006,26.211,0.004c4.056,0.004,7.38,3.079,7.754,7.13c0.324,3.511-2.713,7.192-6.489,7.865   c-2.409,0.429-6.034-1.482-7.028-3.704c-0.431-0.963-0.135-2.016,0.696-2.475c0.869-0.479,1.887-0.271,2.445,0.694   c1.09,1.885,2.677,2.1,4.235,1.714c1.835-0.456,2.737-2.234,2.429-4.545c-0.238-1.78-1.571-2.971-3.393-2.974   C27.565,46.167,21.569,46.173,15.574,46.174z"></path><path fill="#000000" d="M15.574,17.826c-5.798-0.001-5.147-0.001-10.945,0c-0.355,0-0.714-0.023-1.064,0.019   c-1.04,0.126-1.811,0.947-1.789,1.871c0.022,0.941,0.801,1.748,1.852,1.804c1.023,0.054,2.05,0.012,3.076,0.012   c10.887,0,15.324,0.006,26.211-0.004c4.056-0.004,7.38-3.079,7.754-7.13c0.324-3.511-2.713-7.192-6.489-7.865   c-2.409-0.429-6.034,1.482-7.028,3.704c-0.431,0.963-0.135,2.016,0.696,2.475c0.869,0.479,1.887,0.271,2.445-0.694   c1.09-1.885,2.677-2.1,4.235-1.714c1.835,0.456,2.737,2.234,2.429,4.545c-0.238,1.78-1.571,2.971-3.393,2.974   C27.565,17.833,21.569,17.827,15.574,17.826z"></path></g></svg>